<?xml version="1.0" encoding="utf-8"?>
<!-- Generator: Adobe Illustrator 23.0.3, SVG Export Plug-In . SVG Version: 6.00 Build 0)  -->
<svg version="1.1" xmlns="http://www.w3.org/2000/svg" xmlns:xlink="http://www.w3.org/1999/xlink" x="0px" y="0px"
	 viewBox="0 0 1799.6 1200.87" style="enable-background:new 0 0 1799.6 1200.87;" xml:space="preserve">
<style type="text/css">
	.st0{fill:#E3E5FC;}
	.st1{fill:#A7ADFF;}
	.st2{fill:#FFFFFF;}
	.st3{fill:#4B369D;}
	.st4{fill:#D7384E;}
	.st5{fill:#FDC510;}
	.st6{fill:#978CFF;}
	.st7{fill:#5A54FF;}
	.st8{fill:#EAC2AB;}
	.st9{fill:#D4A79A;}
	.st10{fill:#F3AA02;}
	.st11{fill:#F44E4E;}
</style>
<g id="UI">
	<g id="Infographic_Desktop">
		<ellipse class="st0" cx="858.96" cy="1071.9" rx="480.47" ry="18.72"/>
		<g>
			<g>
				<path class="st1" d="M1299.24,868.49H382.96c-24.73,0-44.96-20.23-44.96-44.96V155.21c0-24.73,20.23-44.96,44.96-44.96h916.28
					c24.73,0,44.96,20.23,44.96,44.96v668.32C1344.2,848.26,1323.97,868.49,1299.24,868.49z"/>
				<path class="st0" d="M1271.13,805.25H406.72c-24.73,0-44.96-20.23-44.96-44.96v-572.1c0-24.73,20.23-44.96,44.96-44.96h864.41
					c24.73,0,44.96,20.23,44.96,44.96v572.1C1316.1,785.01,1295.87,805.25,1271.13,805.25z"/>
				<path class="st0" d="M894.25,833.91h-70.57c-1.72,0-3.12-1.41-3.12-3.12l0,0c0-1.72,1.41-3.12,3.12-3.12h70.57
					c1.72,0,3.12,1.41,3.12,3.12l0,0C897.37,832.5,895.96,833.91,894.25,833.91z"/>
				<circle class="st0" cx="391.68" cy="128.7" r="7.02"/>
				<circle class="st2" cx="421.91" cy="128.7" r="7.02"/>
				<circle class="st3" cx="452.41" cy="128.7" r="7.02"/>
				<g>
					<path class="st2" d="M1183.16,526.73h-171.11c-4.59,0-8.35-3.76-8.35-8.35l0,0c0-4.59,3.76-8.35,8.35-8.35h171.11
						c4.59,0,8.35,3.76,8.35,8.35l0,0C1191.5,522.97,1187.75,526.73,1183.16,526.73z"/>
					<path class="st2" d="M1183.16,564.95h-171.11c-4.59,0-8.35-3.76-8.35-8.35l0,0c0-4.59,3.76-8.35,8.35-8.35h171.11
						c4.59,0,8.35,3.76,8.35,8.35l0,0C1191.5,561.2,1187.75,564.95,1183.16,564.95z"/>
					<path class="st2" d="M1183.16,603.18h-171.11c-4.59,0-8.35-3.76-8.35-8.35l0,0c0-4.59,3.76-8.35,8.35-8.35h171.11
						c4.59,0,8.35,3.76,8.35,8.35l0,0C1191.5,599.42,1187.75,603.18,1183.16,603.18z"/>
					<path class="st2" d="M1183.16,646.27h-171.11c-4.59,0-8.35-3.76-8.35-8.35l0,0c0-4.59,3.76-8.35,8.35-8.35h171.11
						c4.59,0,8.35,3.76,8.35,8.35l0,0C1191.5,642.52,1187.75,646.27,1183.16,646.27z"/>
					<path class="st2" d="M1183.16,684.5h-171.11c-4.59,0-8.35-3.76-8.35-8.35l0,0c0-4.59,3.76-8.35,8.35-8.35h171.11
						c4.59,0,8.35,3.76,8.35,8.35l0,0C1191.5,680.74,1187.75,684.5,1183.16,684.5z"/>
					<path class="st2" d="M1183.16,722.73h-171.11c-4.59,0-8.35-3.76-8.35-8.35l0,0c0-4.59,3.76-8.35,8.35-8.35h171.11
						c4.59,0,8.35,3.76,8.35,8.35l0,0C1191.5,718.97,1187.75,722.73,1183.16,722.73z"/>
				</g>
				<path class="st2" d="M490.36,427.93h353.92c24.73,0,44.96-20.23,44.96-44.96v-127.9c0-24.73-20.23-44.96-44.96-44.96H490.36
					c-24.73,0-44.96,20.23-44.96,44.96v127.9C445.39,407.7,465.62,427.93,490.36,427.93z"/>
			</g>
			<g>
				<path class="st4" d="M455.04,722.84L455.04,722.84c-4.62,0-8.41-3.78-8.41-8.41V521.06c0-4.62,3.78-8.41,8.41-8.41h0
					c4.62,0,8.41,3.78,8.41,8.41v193.37C463.45,719.06,459.66,722.84,455.04,722.84z"/>
				<path class="st4" d="M495.31,722.84L495.31,722.84c-4.62,0-8.41-3.78-8.41-8.41v-86.29c0-4.62,3.78-8.41,8.41-8.41l0,0
					c4.62,0,8.41,3.78,8.41,8.41v86.29C503.72,719.06,499.93,722.84,495.31,722.84z"/>
				<path class="st4" d="M535.58,722.84L535.58,722.84c-4.62,0-8.41-3.78-8.41-8.41V545.84c0-4.62,3.78-8.41,8.41-8.41l0,0
					c4.62,0,8.41,3.78,8.41,8.41v168.59C543.98,719.06,540.2,722.84,535.58,722.84z"/>
				<path class="st4" d="M575.84,722.84L575.84,722.84c-4.62,0-8.41-3.78-8.41-8.41v-61.95c0-4.62,3.78-8.41,8.41-8.41l0,0
					c4.62,0,8.41,3.78,8.41,8.41v61.95C584.25,719.06,580.47,722.84,575.84,722.84z"/>
				<path class="st4" d="M616.11,722.84L616.11,722.84c-4.62,0-8.41-3.78-8.41-8.41V610c0-4.62,3.78-8.41,8.41-8.41h0
					c4.62,0,8.41,3.78,8.41,8.41v104.43C624.52,719.06,620.74,722.84,616.11,722.84z"/>
				<path class="st4" d="M656.38,722.84L656.38,722.84c-4.62,0-8.41-3.78-8.41-8.41v-30.94c0-4.62,3.78-8.41,8.41-8.41l0,0
					c4.62,0,8.41,3.78,8.41,8.41v30.94C664.79,719.06,661,722.84,656.38,722.84z"/>
			</g>
			<g>
				<path class="st1" d="M503,361.94c23.75,32.69,69.5,39.94,102.18,16.19l-86-118.37C486.5,283.5,479.25,329.25,503,361.94z"/>
				<g>
					<path class="st1" d="M526.88,254.16l39.4,54.23l55.28-40.16C599.14,238.62,557.07,232.23,526.88,254.16z"/>
					<path class="st5" d="M647.24,263.6c-0.36-0.5-0.78-0.94-1.15-1.43l-74.23,53.92l55.06,75.79
						C667.96,362.06,677.05,304.63,647.24,263.6z"/>
				</g>
			</g>
			<path class="st5" d="M709.39,266.47L709.39,266.47c0-4.89,4-8.9,8.9-8.9h119.35c4.89,0,8.9,4,8.9,8.9l0,0c0,4.89-4,8.9-8.9,8.9
				H718.29C713.39,275.37,709.39,271.36,709.39,266.47z"/>
			<path class="st1" d="M709.39,309.09L709.39,309.09c0-4.89,4-8.9,8.9-8.9h40.47c4.89,0,8.9,4,8.9,8.9v0c0,4.89-4,8.9-8.9,8.9
				h-40.47C713.39,317.99,709.39,313.98,709.39,309.09z"/>
			<g>
				<g>
					<path class="st6" d="M761.04,669.4c-44.25,0-80.25-36-80.25-80.25c0-44.25,36-80.25,80.25-80.25c44.25,0,80.25,36,80.25,80.25
						C841.29,633.4,805.29,669.4,761.04,669.4z M761.04,516.4c-40.12,0-72.76,32.64-72.76,72.75c0,40.12,32.64,72.76,72.76,72.76
						c40.12,0,72.75-32.64,72.75-72.76C833.79,549.03,801.16,516.4,761.04,516.4z"/>
				</g>
				<g>
					<path class="st6" d="M761.04,643.17c-29.79,0-54.02-24.23-54.02-54.02c0-29.79,24.23-54.02,54.02-54.02
						s54.02,24.23,54.02,54.02C815.06,618.94,790.83,643.17,761.04,643.17z M761.04,542.63c-25.65,0-46.53,20.87-46.53,46.52
						c0,25.65,20.87,46.53,46.53,46.53c25.65,0,46.52-20.87,46.52-46.53C807.56,563.5,786.7,542.63,761.04,542.63z"/>
				</g>
				<g>
					<path class="st6" d="M761.04,620.13c-17.08,0-30.98-13.9-30.98-30.98s13.89-30.98,30.98-30.98s30.98,13.9,30.98,30.98
						S778.12,620.13,761.04,620.13z M761.04,565.67c-12.95,0-23.48,10.53-23.48,23.48s10.53,23.48,23.48,23.48
						s23.48-10.53,23.48-23.48S773.99,565.67,761.04,565.67z"/>
				</g>
				<g>
					<path class="st5" d="M756.99,595.88l0.86-19.07c0.1-2.07,1.83-3.66,3.91-3.58c2.07,0.09,3.67,1.85,3.58,3.91l-0.24,5.28
						l124.26-73c1.79-1.05,4.08-0.45,5.13,1.33c1.05,1.78,0.45,4.08-1.33,5.13L756.99,595.88z"/>
				</g>
				<g>
					<path class="st5" d="M773.84,596.61h-12.8c-2.07,0-3.75-1.68-3.75-3.75s1.68-3.75,3.75-3.75h12.8c2.07,0,3.75,1.68,3.75,3.75
						S775.91,596.61,773.84,596.61z"/>
				</g>
			</g>
			<g>
				<g>
					<g>
						<path class="st7" d="M988.61,429.2c-0.61,0-1.23-0.15-1.8-0.46c-1.82-1-2.48-3.27-1.48-5.09l30.76-56.01l24.57,23.51
							l16.38-25.98l14.37,8.7l34.37-85.28l23.95,42.49l22.54-33.38l19.01,23.32l38.45-70.81c1.22-2.25,2.83-4.71,4.53-7.32
							c1.4-2.15,2.89-4.43,4.19-6.65c-1.45,0.63-2.93,1.32-4.34,1.98c-2.61,1.22-5.07,2.37-7.29,3.12c-1.95,0.66-4.08-0.4-4.75-2.36
							c-0.66-1.96,0.4-4.09,2.36-4.75c1.82-0.61,4.09-1.67,6.5-2.8c4.78-2.23,9.71-4.54,14.08-4.88l5.33-0.41l-1.43,5.15
							c-1.39,4.99-4.94,10.43-8.38,15.7c-1.62,2.48-3.15,4.82-4.22,6.8l-43.78,80.63l-19.7-24.17l-23.68,35.07l-22.26-39.48
							l-31.84,78.99l-15.61-9.45l-17.34,27.51l-24.14-23.1l-26.06,47.46C991.22,428.5,989.94,429.2,988.61,429.2z"/>
					</g>
					<g>
						<path class="st7" d="M1227.49,252.76c-2.07,0-3.75-1.68-3.75-3.75v-18.74c0-2.07,1.68-3.75,3.75-3.75
							c2.07,0,3.75,1.68,3.75,3.75v18.74C1231.24,251.08,1229.56,252.76,1227.49,252.76z"/>
					</g>
				</g>
				<g>
					<path class="st1" d="M984.87,451.05L984.87,451.05c-2.06,0-3.75-1.69-3.75-3.75V208.12c0-2.06,1.69-3.75,3.75-3.75l0,0
						c2.06,0,3.75,1.69,3.75,3.75v239.19C988.62,449.37,986.93,451.05,984.87,451.05z"/>
					<path class="st1" d="M962.08,429.2L962.08,429.2c0-2.06,1.69-3.75,3.75-3.75h239.19c2.06,0,3.75,1.69,3.75,3.75l0,0
						c0,2.06-1.69,3.75-3.75,3.75H965.82C963.76,432.94,962.08,431.26,962.08,429.2z"/>
				</g>
				<path class="st4" d="M1123.67,263.26h-69.63c-6.87,0-12.49-5.62-12.49-12.49v0c0-6.87,5.62-12.49,12.49-12.49h69.63
					c6.87,0,12.49,5.62,12.49,12.49v0C1136.16,257.64,1130.54,263.26,1123.67,263.26z"/>
				<g>
					<g>
						<rect x="1170.97" y="317.99" class="st3" width="2.81" height="3.75"/>
					</g>
					<g>
						<path class="st3" d="M1173.78,310.94h-2.81v-7.05h2.81V310.94z M1173.78,296.83h-2.81v-7.05h2.81V296.83z M1173.78,282.72
							h-2.81v-7.05h2.81V282.72z M1173.78,268.62h-2.81v-7.05h2.81V268.62z"/>
					</g>
					<g>
						<polygon class="st3" points="1173.78,254.51 1170.97,254.51 1170.97,252.17 1168.63,252.17 1168.63,249.36 1173.78,249.36 
													"/>
					</g>
					<g>
						<rect x="1149.48" y="249.36" class="st3" width="9.58" height="2.81"/>
					</g>
					<g>
						<rect x="1136.16" y="249.36" class="st3" width="3.75" height="2.81"/>
					</g>
				</g>
			</g>
		</g>
		<path class="st4" d="M1174.11,338.47h-3.46c-4.68,0-8.51-3.83-8.51-8.51v-3.46c0-4.68,3.83-8.51,8.51-8.51h3.46
			c4.68,0,8.51,3.83,8.51,8.51v3.46C1182.62,334.64,1178.79,338.47,1174.11,338.47z"/>
	</g>
</g>
<g id="Characters">
	<g id="Man">
		<path id="Arm_1_" class="st8" d="M1436.97,509.95c0,0,11.09,52.73,10.15,74.28s-19.67,53.7-19.67,53.7l-12.1-127.97H1436.97z"/>
		<g id="Head">
			<path id="Neck" class="st9" d="M1370.78,413.26l2.44,45.42l35.55,13.71c0,0-21.38-31.28-17.75-59.13
				C1394.63,385.41,1370.78,413.26,1370.78,413.26z"/>
			<path id="Face" class="st8" d="M1339.01,320.33c0,0-7.74,10.26-0.19,41.71c7.55,31.46,19.81,58.32,29.29,56.42
				c26.21-5.24,35.41-23.76,44.5-39.66c11.14-19.5-10.98-67.06-10.98-67.06l-20.9-11.28L1339.01,320.33z"/>
			<path id="Hair" class="st3" d="M1311.1,311.86c-2.29-7.38,1.73-16.82,7.1-21.38c2.07-1.76,4.68-2.88,7.29-2.62
				c1.96,0.19,3.88,1.14,5.83,0.82c5.84-0.97,6.54-9.58,11.96-11.33c4.04-1.3,7.92,2.36,12.04,3.33c3.11,0.73,6.33-0.11,9.46-0.76
				c8.81-1.85,16.98-6.08,26.01-7.17c7.62-0.92,15.57-0.06,22.46,3.64c7.2,3.86,12.36,10.96,15.11,19.16
				c1.64,4.9,2.17,10.36,0.85,15.38c1.08-4.13,8.51,0.31,9.72,1.93c4.72,6.38,5.53,20.21,3.02,27.63
				c-1.99,5.88-5.26,11.08-7.08,17.04c-2.16,7.11-3.06,15-7,21.3c-4.51,7.23-28.8,30.96-36.51,28.96
				c2.38-6.54-9.22-12.48-8.79-19.51c0.43-7.03,4.82-43.62-29.76-50.47c-13.75-2.72,3.89-7.18-9.88-6.63
				c-6.54,0.26-13.09-1.01-19.22-3.5c-4.74-1.92-9.35-8.99-11.96-14.16C1311.49,312.98,1311.28,312.43,1311.1,311.86z"/>
			<path id="Ear" class="st8" d="M1380.41,359.28c0,0,14.37-12.31,13.32,4.34s-14.5,21.48-14.5,21.48L1380.41,359.28z"/>
		</g>
		<g id="Leg_2_">
			<path id="Skin_1_" class="st9" d="M1418.83,988.2l-8.84,59.96l19.74,5.02l5.51-63.11
				C1435.23,990.07,1424.85,985.78,1418.83,988.2z"/>
			<path id="Shoe_1_" class="st10" d="M1332.61,1076.97c0,0,14.78,3.92,42.6,4.03s58.77-1.03,64.09-5.53
				c5.33-4.5,6.49-39.67-2.74-39.02s-11.88,14.25-28.97,3.48c-14.65-9.23-24.43,10.79-48.33,17.63
				C1335.36,1064.4,1325.68,1067.14,1332.61,1076.97z"/>
			<path id="Leg_3_" class="st3" d="M1369.64,1006.69c0.76-2.42,3.07-4.37,5.05-6.35c18.14-18.17,11.63-43.47,6.96-65.66
				c-11.06-52.64-6.97-106.76-7.77-160.13c-0.78-52.09-9.2-103.83-23.61-153.64c-5.23-18.1-12.68-46.13,13.75-42.58
				c12.52,1.68,24.66,0.33,36.8-2.89c6.39-1.69-0.38-3.53,6.39-1.69c23.05,6.26,36.23,72.67,32.74,89.16
				c-6.94,32.83-9.29,43.34-8.39,77.53c1.28,48.49-2.7,97.4,5.92,144.99c4.23,23.32,8.86,46.56,13.38,69.81
				c2.64,13.56,15.22,42.82,9.06,55.69c-8.46,17.68-52.5,6.29-66.9,6.91C1382.21,1018.32,1367.05,1014.94,1369.64,1006.69z"/>
		</g>
		<g id="Leg">
			<path id="Skin" class="st8" d="M1374.11,990.27l-13.01,59.19l19.34,6.38l9.91-62.57
				C1390.35,993.28,1380.29,988.28,1374.11,990.27z"/>
			<path id="Shoe" class="st5" d="M1281.9,1072.79c0,0,14.47,4.94,42.21,7c27.74,2.06,58.7,3.09,64.32-1.03
				c5.63-4.12,9.25-39.11,0-39.11c-9.25,0-12.84,13.38-29.15,1.44c-13.97-10.23-25.13,9.06-49.45,14.2
				C1285.52,1060.43,1275.67,1062.49,1281.9,1072.79z"/>
			<path id="Leg_1_" class="st7" d="M1323.75,1006.85c0.93-2.17,3.37-3.79,5.49-5.48c19.37-15.44,14.64-38.99,11.54-59.57
				c-7.35-48.82,0.52-98.03,3.46-146.86c2.86-47.66-1.91-95.49-12.8-141.95c-3.96-16.88-9.42-42.98,16.69-38.04
				c12.37,2.34,24.58,1.88,36.91-0.28c6.49-1.14-0.13-3.25,6.49-1.14c22.55,7.2,31.32,31.25,26.69,46.09
				c-9.22,29.57-12.57,76.52-14.06,107.83c-2.12,44.4-9.51,88.85-4.24,132.91c2.58,21.59,5.58,43.12,8.46,64.67
				c1.68,12.57,12.19,40.11,5.14,51.49c-9.68,15.62-52.81,2.38-67.22,2.03C1335.48,1018.28,1320.6,1014.22,1323.75,1006.85z"/>
		</g>
		<path id="Arm" class="st8" d="M1298.59,500.23c-9.34,7.06-19.28,13.31-29.68,18.68c-8.09,4.17-30.03,18.24-38.53,9.63
			c-2.48-2.52-3.56-6.07-4.45-9.49c-5.27-20.19-12.92-39.65-20.4-59.1c-6.69-17.37-14.72-35.69-14.1-54.69
			c0.64-19.4-0.52-45.57-2.37-50.32c-1.85-4.75-17.02-32.71-17.3-24.01c-0.28,8.7,14.34,32.62,7.67,31.73
			c-6.67-0.89-20.92,4.67-19.24,14.78c1.68,10.1,12.35,31.89,12.35,31.89c4.67,19.63,9.59,39.22,14.7,58.74
			c3.82,14.6,7.74,29.2,12.11,43.65c4.25,14.05,8.19,29.3,20.55,38.62c1.61,1.22,3.32,2.3,5.14,3.17c14.64,7,31.85-0.33,46.09-8.11
			c30.55-16.69,59.51-35.95,88.69-54.88c-5.71-5.61-11.42-11.21-17.12-16.82c-1.37-1.34-2.87-2.76-4.76-3.04
			c-2.21-0.34-4.32,0.94-6.15,2.23c-9.11,6.39-17.08,14.22-25.63,21.35C1303.68,496.29,1301.15,498.29,1298.59,500.23z"/>
		<g id="Body">
			<path class="st11" d="M1397.76,515.78c0,0-30.03-50.39-7.11-59.81s46.32,53.99,46.32,53.99l-37.73,14.88L1397.76,515.78z"/>
			<path class="st4" d="M1328.35,625.05c0-2.08-3.47-56.2,4.16-90.89c7.63-34.69,0-64.53,26.37-85.34
				c26.37-20.81,47.87,6.94,54.81,21.51c6.94,14.57,12.76,60.83,13.74,85.34c1,25.05,14.17,77.98,14.7,79.1
				c10.46,21.75,3.58,20.15,2.67,22.22c-5.65,12.88-42.4,15.38-51.23,10.82c-19.36-10-23.47-15.44-44.34-12.23
				c-9.02,1.39-18.99-1.39-21.67-4.16S1328.35,625.05,1328.35,625.05z"/>
			<path class="st11" d="M1313.64,476.64c0,0,48.71-51.93,67.38-28.36c18.68,23.57-47.44,72.14-47.44,72.14l-30.01-39.02
				L1313.64,476.64z"/>
		</g>
	</g>
</g>
</svg>
