<?xml version="1.0" encoding="utf-8"?>
<!-- Generator: Adobe Illustrator 23.0.3, SVG Export Plug-In . SVG Version: 6.00 Build 0)  -->
<svg version="1.1" xmlns="http://www.w3.org/2000/svg" xmlns:xlink="http://www.w3.org/1999/xlink" x="0px" y="0px"
	 viewBox="0 0 1799.6 1200.87" style="enable-background:new 0 0 1799.6 1200.87;" xml:space="preserve">
<style type="text/css">
	.st0{fill:#FDC510;}
	.st1{fill:#FFFFFF;}
	.st2{fill:#F44E4E;}
	.st3{fill:#5A54FF;}
	.st4{fill:none;stroke:#FFFFFF;stroke-linecap:round;stroke-miterlimit:10;}
	.st5{fill:#D4A79A;}
	.st6{fill:#EFF0FC;}
	.st7{fill:#E3E5FC;}
	.st8{fill:#4B369D;}
	.st9{opacity:0.36;fill:#F44E4E;}
	.st10{fill:#A7ADFF;}
	.st11{fill:#EAC2AB;}
	.st12{fill:#978CFF;}
</style>
<g id="Nature">
	<g>
		<path class="st0" d="M528.79,838.45c-1.1-8.09-0.87-18.06,6.16-22.2c10.33-6.09,21.13,6.35,31.24,12.81
			c2.32,1.48,4.99,2.7,7.72,2.4c2.72-0.3,5.08-2.09,6.85-4.18c6.22-7.31,6.49-17.89,5.49-27.44s-2.93-19.41-0.05-28.56
			c2.87-9.15,12.78-17,21.75-13.65c20.19,7.55,20.86-20.19,30.06-31.08c3.88-4.59,9.89-7.84,15.8-6.81
			c5.8,1.02,10.2,5.81,13.21,10.87c6.85,11.52,9.42,27.8,4.4,40.55c-4.72,11.99-19.09,19.26-18.17,33.81
			c0.64,10.01,9.51,18.46,8.79,28.46c-0.6,8.35-7.74,14.91-9.29,23.13c-2.08,11.08,6.39,22.33,3.62,33.26
			c-1.8,7.1-8.03,12.4-10.01,19.46c-2.44,8.7,2.05,17.65,3.34,26.59c2.76,19.15-11.09,40.18-31.06,42.41
			c-17.07,1.91-28.74-15.76-38.9-27.52C552.52,919.23,534.4,879.77,528.79,838.45z"/>
		<g>
			<path class="st1" d="M611.71,930.14c-0.03,0-0.07,0-0.11,0c-1.03-0.06-1.82-0.94-1.76-1.98l5.74-101.74
				c0.05-1.03,0.84-1.79,1.98-1.76c1.03,0.06,1.82,0.94,1.76,1.98l-5.74,101.74C613.53,929.37,612.7,930.14,611.71,930.14z"/>
		</g>
		<g>
			<path class="st1" d="M615.07,870.64c-0.44,0-0.88-0.15-1.23-0.46l-25.76-22.52c-0.78-0.68-0.86-1.86-0.18-2.64
				c0.68-0.78,1.87-0.86,2.64-0.18l25.76,22.52c0.78,0.68,0.86,1.86,0.18,2.64C616.11,870.43,615.59,870.64,615.07,870.64z"/>
		</g>
		<path class="st2" d="M604.58,988.81c-8.3-1.69-16.87-7.47-25.25-11.91c-18.31-9.7-22.19-26.18-98.48-23.66
			c-35.46,1.17-17.55-40.79-42.43-66.23c-7.86-8.03-15.7-17.09-17.46-28.19c-1.76-11.1,5.35-24.28,16.57-24.88
			c6.74-0.36,12.81,3.65,19.09,6.11s14.76,2.74,18.43-2.92c-4.98-6.7-12.1-11.44-18.1-17.25c-5.99-5.81-11.14-13.58-10.28-21.88
			c1.33-12.83,13.78-7.47,17.41-13.35c4.87-7.89-0.3-25.28,2.45-35.35c6.44-23.61,42.4-39.46,61.11-19.07
			c21.65,23.61,18.6,62.58,16.84,94.7c-2.45,44.66,42.81,50.41,62.54,76.94c14.23,19.12,36.63,54.43,18.85,77.9
			C619.19,988.58,611.99,990.32,604.58,988.81z"/>
		<g>
			<path class="st1" d="M623.49,994.78c-0.55,0-1.09-0.24-1.46-0.7L522.66,871.1c-0.65-0.8-0.53-1.99,0.28-2.64
				c0.81-0.65,1.98-0.52,2.63,0.28l99.37,122.99c0.65,0.8,0.53,1.99-0.28,2.64C624.33,994.65,623.91,994.78,623.49,994.78z"/>
		</g>
		<g>
			<path class="st1" d="M574.57,937.1c-0.21,0-0.43-0.04-0.64-0.11l-58.92-21.44c-0.97-0.35-1.47-1.43-1.12-2.4
				c0.35-0.97,1.42-1.48,2.4-1.12l58.92,21.44c0.97,0.35,1.47,1.43,1.12,2.4C576.06,936.63,575.34,937.1,574.57,937.1z"/>
		</g>
		<g>
			<path class="st1" d="M546.6,900.08c-0.21,0-0.43-0.04-0.64-0.11l-58.92-21.44c-0.97-0.35-1.47-1.43-1.12-2.4
				c0.35-0.97,1.42-1.47,2.4-1.12l58.92,21.44c0.97,0.35,1.47,1.43,1.12,2.4C548.08,899.6,547.36,900.08,546.6,900.08z"/>
		</g>
		<g>
			<path class="st1" d="M595.12,962.53L595.12,962.53c-1.04,0-1.88-0.84-1.87-1.88l0.14-51.82c0-1.03,0.84-1.87,1.87-1.87h0
				c1.04,0,1.87,0.84,1.87,1.88l-0.14,51.82C596.99,961.69,596.15,962.53,595.12,962.53z"/>
		</g>
	</g>
	<g>
		<g>
			<path class="st0" d="M1292.98,796.97c-15.94,3.09,41.49-19.16,25.56-16.07c9.44-21.95-28.15-18.25-19.66-40.45
				c-24.34-0.39-52.8-28.74-55.02-8.99c52.52-81.39-13.05-67.28-29.04-121.52c-1.96-6.66-6.61-14.48-15.02-14.58
				c-5.64-0.06-10.29,3.6-13.43,7.42c-26.17,31.87,9.66,75.46-1.97,112.61c-8.9,1.44-15.55-6.14-20.73-12.21s-15.5-11.98-22.36-7.13
				c-4.73,3.34-3.81,9.43-2.25,14.37c7.51,23.65,20.79,46.08,38.83,65.59c-7.64,4.34-17.64-1.01-25.07-5.58
				c-7.43-4.57-19.56-8-24.71-1.69c-2.94,3.61-1.5,8.44,0.45,12.47c5.8,11.96,15.37,22.69,27.55,30.89
				c20.03,13.48-6.7,14.26-6.01,26.43c0.77,13.51,11.97,15.68,9.25,31.51c-3.44,19.96-21.65,33.43,13.47,35.92
				c23.09,1.64,51.02-13.74,66.43-26.08c13.71-10.97,24.8-25.52,33.68-39.31C1275.85,836.02,1290.79,797.39,1292.98,796.97z"/>
			<path class="st3" d="M1162.68,928.04c70.29-12.72,137.98-37.25,198.66-72c5.88-3.37,11.93-7.05,15.33-12.58
				c3.4-5.53,3.18-13.43-2.32-17.3c-4.36-3.06-10.43-2.74-15.91-2.28c-16.21,1.36-32.42,2.73-48.62,4.09
				c17.81-16.14,34.73-33.12,50.65-50.83c4-4.45,7.93-11.2,3.6-15.38c-2.38-2.3-6.23-2.54-9.69-2.64c-8.7-0.23-17.4-0.47-26.1-0.7
				c9.14-11.97,16.56-25.02,22.02-38.73c2.38-5.99,4.42-12.42,2.98-18.66c-1.44-6.23-7.46-12.02-14.42-11.53
				c-3.7,0.26-7,2.17-10,4.16c-24.63,16.4-40.53,43.23-42.07,71.01c-0.63,11.39-1.24,26.08-13.11,29.68
				c-4.25,1.29-8.89,0.6-13.35,1.04c-17.12,1.7-26.83,19.02-29.27,34.57c-2.43,15.54-1,32.24-9.35,45.96
				c-3.55,5.83-8.68,10.75-12.35,16.51c-3.67,5.77-5.77,13.04-2.65,19.07c3.12,6.03,13.1,8.94,18.06,4.04"/>
			<g>
				<path class="st1" d="M1198.59,882.43c-0.07,0-0.14,0-0.22-0.01c-1.03-0.12-1.77-1.04-1.65-2.07l19.73-174.47
					c0.12-1.03,1.05-1.76,2.07-1.65c1.03,0.12,1.77,1.04,1.65,2.07l-19.73,174.47C1200.34,881.72,1199.53,882.43,1198.59,882.43z"/>
			</g>
			<g>
				<path class="st1" d="M1205.93,817.45c-0.42,0-0.85-0.14-1.2-0.44c-0.79-0.66-0.9-1.85-0.23-2.64l44.88-53.61
					c0.67-0.79,1.85-0.9,2.64-0.23c0.79,0.66,0.9,1.85,0.23,2.64l-44.88,53.61C1206.99,817.23,1206.46,817.45,1205.93,817.45z"/>
			</g>
			<g>
				<path class="st1" d="M1210.82,774.27c-0.56,0-1.12-0.26-1.49-0.74l-27.59-36.42c-0.63-0.82-0.46-2,0.36-2.62
					c0.82-0.62,1.99-0.47,2.62,0.36l27.59,36.42c0.63,0.82,0.46,2-0.36,2.62C1211.61,774.15,1211.21,774.27,1210.82,774.27z"/>
			</g>
			<g>
				<path class="st1" d="M1246.44,906.27c-0.29,0-0.59-0.07-0.86-0.21c-0.92-0.47-1.28-1.6-0.81-2.52l59.67-115.62
					c0.48-0.92,1.61-1.28,2.52-0.81c0.92,0.47,1.28,1.6,0.81,2.52l-59.67,115.62C1247.77,905.9,1247.12,906.27,1246.44,906.27z"/>
			</g>
			<g>
				<path class="st1" d="M1279.7,841.82c-0.76,0-1.48-0.47-1.76-1.23l-8.91-24.37c-0.35-0.97,0.15-2.05,1.12-2.4
					c0.97-0.36,2.05,0.15,2.4,1.12l8.91,24.37c0.35,0.97-0.15,2.05-1.12,2.4C1280.13,841.78,1279.91,841.82,1279.7,841.82z"/>
			</g>
		</g>
		<g>
			<path class="st1" d="M1270.72,861.57c-1.03,0-1.87-0.83-1.87-1.86c-0.01-1.04,0.82-1.88,1.86-1.89l48.6-0.36
				c0.01,0,0.01,0,0.01,0c1.03,0,1.87,0.83,1.87,1.86c0.01,1.04-0.82,1.88-1.86,1.89l-48.6,0.36
				C1270.73,861.57,1270.73,861.57,1270.72,861.57z"/>
		</g>
	</g>
</g>
<g id="Characters">
	<path id="Hand_2_" class="st5" d="M816.62,844.28c0.6-1.85,1.23-3.68,1.89-5.51c22.91-63.43,80.41-108.18,140.55-138.7
		c20.75-10.53,42.73-20.25,58.42-37.42c35.74-39.1,24.85-103.6-21.64-128.85c21.59,11.72,84.06-12.5,50.44-37.18
		c-7.95-5.84-17.97-7.94-26.85-12.23c-8.88-4.29-17.39-12.39-16.78-22.24c0.27-4.3,2.27-8.31,4.69-11.88
		c10.6-15.6,29.26-24.45,39.26-40.44c2.21-3.54,4-7.58,3.65-11.74c-0.56-6.6-6.5-11.72-12.88-13.48
		c-63.46-17.48-112.36,59.65-175.18,52.63c-3.59-0.4-7.43-1.03-10.63,0.64c-3.72,1.95-5.32,6.36-6.39,10.42
		c-7.43,27.98-5.23,58.43,6.16,85.05c9.46,22.12,25.4,43.43,23,67.37c-2.15,21.43-18.95,39.89-18.5,61.42
		c0.12,5.73,1.47,11.58,0,17.12c-2.22,8.35-10.2,13.74-17.93,17.6c-37.6,18.77-81.39,19.06-122.32,28.58
		c-2.89,0.67-5.92,1.47-8.02,3.56c-3.66,3.63-3.18,9.54-2.67,14.67c4,39.97-5.55,79.92-15.03,118.95
		c-10.47,43.11-20.94,86.22-31.41,129.33c-1.11,4.56-2.05,9.91,0.98,13.49c1.66,1.97,4.2,2.94,6.63,3.79
		c14.1,4.93,28.65,8.54,43.42,10.78c11.7,1.78,23.9,2.65,35.18-0.94c17.53-5.58,30.14-21.13,38.34-37.6
		C804.04,939.19,802.02,889.15,816.62,844.28z"/>
	<path id="Hand_1_" class="st5" d="M730.83,604.16c7.36-19.44,16.87-38.05,23.28-57.83c5.15-15.9,8.23-32.4,10.78-48.92
		c4.66-30.13,4.68-60.53,5.92-91c15.59,7.23,33.45,24.3,36.1,41.28c2.64,16.98-2.96,34.27-4.81,51.36
		c-4.55,42.17-5.84,88.21,19.66,122.1c9.64,12.81,22.19,23.15,32.27,35.61c10.08,12.47,17.8,28.32,15.08,44.12
		c-3.37,19.61-21.29,32.97-38.32,43.26c-22.32,13.49-45.6,25.38-69.61,35.54c-14.15,5.99-16.37,12.35-35.49,12.55
		c-10.48,0.11-24.77-35.29-20.89-78.34C709.09,666.14,713.61,649.66,730.83,604.16z"/>
</g>
<g id="UI">
	<g id="Phone">
		<path class="st6" d="M976.62,230.09H806.12c-19.39,0-35.25,15.86-35.25,35.25v171.01c75.1-67.42,151.66-133.21,231.48-194.93
			C995.91,234.49,986.77,230.09,976.62,230.09z"/>
		<path class="st7" d="M1002.36,241.42c-79.82,61.72-156.37,127.51-231.48,194.93v149.74v96.54c0,19.38,15.86,35.25,35.25,35.25
			h170.49c19.39,0,35.25-15.86,35.25-35.25v-417.3c0-9.06-3.49-17.32-9.16-23.58C1002.59,241.64,1002.47,241.54,1002.36,241.42z"/>
		<path class="st3" d="M976.62,230.09H806.12c-19.39,0-35.25,15.86-35.25,35.25v417.3c0,19.39,15.86,35.25,35.25,35.25h170.49
			c19.39,0,35.25-15.86,35.25-35.25v-417.3C1011.86,245.95,996,230.09,976.62,230.09z M996.57,637.13
			c0,19.39-15.86,35.25-35.25,35.25H821.41c-19.39,0-35.25-15.86-35.25-35.25v-355.4c0-19.39,15.86-35.25,35.25-35.25h139.91
			c19.38,0,35.25,15.86,35.25,35.25V637.13z"/>
		<path class="st7" d="M915.03,241.25h-47.32c-0.58,0-1.05-0.47-1.05-1.05v-1.92c0-0.58,0.47-1.05,1.05-1.05h47.32
			c0.58,0,1.05,0.47,1.05,1.05v1.92C916.08,240.78,915.61,241.25,915.03,241.25z"/>
		<circle class="st8" cx="891.37" cy="693.62" r="12.5"/>
	</g>
	<g id="Touch">
		<circle class="st9" cx="896.21" cy="450.04" r="66.89"/>
		<circle class="st9" cx="896.21" cy="450.04" r="50.65"/>
		<circle class="st2" cx="896.21" cy="450.04" r="27.34"/>
	</g>
	<g id="Wifi">
		<g>
			<path class="st10" d="M1058.6,245.63c-2.07,0-3.75-1.68-3.75-3.75c0-33.68-27.4-61.09-61.09-61.09c-2.07,0-3.75-1.68-3.75-3.75
				s1.68-3.75,3.75-3.75c37.81,0,68.58,30.76,68.58,68.58C1062.35,243.95,1060.67,245.63,1058.6,245.63z"/>
		</g>
		<g>
			<path class="st10" d="M1037.59,245.63c-2.07,0-3.75-1.68-3.75-3.75c0-20.68-16.82-37.5-37.5-37.5c-2.07,0-3.75-1.68-3.75-3.75
				c0-2.07,1.68-3.75,3.75-3.75c24.81,0,44.99,20.18,44.99,45C1041.34,243.95,1039.66,245.63,1037.59,245.63z"/>
		</g>
	</g>
	<g id="Element">
		<path class="st7" d="M1191.03,291.55h-95.91c-3.11,0-5.65-2.54-5.65-5.65v-5.51c0-3.11,2.54-5.65,5.65-5.65h95.91
			c3.11,0,5.65,2.54,5.65,5.65v5.51C1196.68,289.01,1194.14,291.55,1191.03,291.55z"/>
		<path class="st7" d="M1191.03,320.08h-95.91c-3.11,0-5.65-2.54-5.65-5.65v-5.51c0-3.11,2.54-5.65,5.65-5.65h95.91
			c3.11,0,5.65,2.54,5.65,5.65v5.51C1196.68,317.53,1194.14,320.08,1191.03,320.08z"/>
		<path class="st7" d="M1191.03,348.6h-95.91c-3.11,0-5.65-2.54-5.65-5.65v-5.51c0-3.11,2.54-5.65,5.65-5.65h95.91
			c3.11,0,5.65,2.54,5.65,5.65v5.51C1196.68,346.06,1194.14,348.6,1191.03,348.6z"/>
		<path class="st7" d="M1191.03,377.13h-95.91c-3.11,0-5.65-2.54-5.65-5.65v-5.51c0-3.11,2.54-5.65,5.65-5.65h95.91
			c3.11,0,5.65,2.54,5.65,5.65v5.51C1196.68,374.59,1194.14,377.13,1191.03,377.13z"/>
	</g>
	<g id="Element_1_">
		<g>
			<path class="st7" d="M686.97,408.8H466.35c-3.11,0-5.65-2.54-5.65-5.65v-11.56c0-3.11,2.54-5.65,5.65-5.65h220.62
				c3.11,0,5.65,2.54,5.65,5.65v11.56C692.62,406.26,690.08,408.8,686.97,408.8z"/>
			<path class="st7" d="M686.97,447.59H552.49c-3.11,0-5.65-2.54-5.65-5.65v-11.56c0-3.11,2.54-5.65,5.65-5.65h134.48
				c3.11,0,5.65,2.54,5.65,5.65v11.56C692.62,445.05,690.08,447.59,686.97,447.59z"/>
		</g>
		<g>
			<path class="st7" d="M686.97,534.57H559.98c-3.11,0-5.65-2.54-5.65-5.65v-11.55c0-3.11,2.54-5.65,5.65-5.65h126.99
				c3.11,0,5.65,2.54,5.65,5.65v11.55C692.62,532.03,690.08,534.57,686.97,534.57z"/>
			<path class="st7" d="M686.97,573.36h-75.63c-3.11,0-5.65-2.54-5.65-5.65v-11.56c0-3.11,2.54-5.65,5.65-5.65h75.63
				c3.11,0,5.65,2.54,5.65,5.65v11.56C692.62,570.82,690.08,573.36,686.97,573.36z"/>
		</g>
	</g>
</g>
<g id="Characters_copy">
	<path id="Hand_3_" class="st11" d="M1090.68,835.19c-1.17-8.99-1.9-18.1-2.07-27.37c-1.08-61.18,7.92-141.18-50.58-178.63
		c-26.32-16.85-61.11-17.93-82.47-43.31c-7.86-9.34-12.09-21.29-16.1-32.97c-12.5-36.38-24.57-72.92-36.19-109.61
		c-11.94,1.31-18.77,14.8-21.4,26.94c-7.63,35.19,1.9,71.89,14.37,105.55s28.1,66.61,33.3,102.27c1.97,13.53-2.15,32.53-15.34,32.03
		c-6.97-0.27-12.26-6.53-15.82-12.75c-14.47-25.27-18.78-61.34-45.25-71.87c-7.01-2.79-17.03-1.78-19.32,5.64
		c-1.24,4-2.58,8.29-1.01,12.16c22.02,54.56,38.49,103.85,72.39,151.42c12.93,18.15,40.35,37.09,52.8,55.64
		c44.58,66.43,43.52,76.67,79.96,147.54c2.41,4.69,7.3-40.2,11.8-37.65c4.33,2.46,1.37,22.25,6.27,21.64
		c24.75-3.07,53.55,14.83,75.75,3.08c3.69-1.95,7.58-4.1,9.62-7.85c2.04-3.76,1.78-8.34,1.47-12.64
		C1137.55,891.92,1100.02,906.74,1090.68,835.19z"/>
</g>
<g id="UI_1_">
	<g id="Button">
		<path class="st7" d="M1252.67,887.71c-10.01-6.62-21.97-10.51-34.8-10.51H847.02c-0.72,0-1.41,0.08-2.13,0.11
			c54.41,14.3,108.27,31.42,161.57,49.65C1090.06,960.39,1169.29,913.35,1252.67,887.71z"/>
		<path class="st12" d="M1252.67,887.71c-83.38,25.64-162.61,72.68-246.2,39.25c-53.3-18.23-107.16-35.36-161.57-49.65
			c-33.89,1.14-61.28,29.14-61.28,63.3c0,34.88,28.53,63.41,63.41,63.41h370.84c34.87,0,63.41-28.53,63.41-63.41
			C1281.27,918.57,1269.86,899.08,1252.67,887.71z"/>
		<g>
			<path class="st3" d="M912.36,1027.57H573.97c-24.77,0-45.03-20.26-45.03-45.03v-6.85c0-24.77,20.26-45.03,45.03-45.03h338.39
				c24.77,0,45.03,20.26,45.03,45.03v6.85C957.39,1007.3,937.13,1027.57,912.36,1027.57z"/>
			<g>
				<path class="st1" d="M913.53,979.45l-1.51,1.85c-0.35,0.43-0.99,0.49-1.42,0.14L884,959.77c-0.43-0.35-0.49-0.99-0.14-1.42
					l1.51-1.85c0.35-0.43,0.99-0.49,1.42-0.14l26.61,21.67C913.82,978.38,913.88,979.02,913.53,979.45z"/>
				<path class="st1" d="M913.53,978.77l-1.51-1.85c-0.35-0.43-0.99-0.49-1.42-0.14L884,998.45c-0.43,0.35-0.49,0.99-0.14,1.42
					l1.51,1.85c0.35,0.43,0.99,0.49,1.42,0.14l26.61-21.67C913.82,979.84,913.88,979.2,913.53,978.77z"/>
			</g>
			<g>
				<path class="st1" d="M877,979.45l-1.51,1.85c-0.35,0.43-0.99,0.49-1.42,0.14l-26.61-21.67c-0.43-0.35-0.49-0.99-0.14-1.42
					l1.51-1.85c0.35-0.43,0.99-0.49,1.42-0.14l26.61,21.67C877.28,978.38,877.35,979.02,877,979.45z"/>
				<path class="st1" d="M877,978.77l-1.51-1.85c-0.35-0.43-0.99-0.49-1.42-0.14l-26.61,21.67c-0.43,0.35-0.49,0.99-0.14,1.42
					l1.51,1.85c0.35,0.43,0.99,0.49,1.42,0.14l26.61-21.67C877.28,979.84,877.35,979.2,877,978.77z"/>
			</g>
			<g>
				<path class="st1" d="M837.12,979.45l-1.51,1.85c-0.35,0.43-0.99,0.49-1.42,0.14l-26.61-21.67c-0.43-0.35-0.49-0.99-0.14-1.42
					l1.51-1.85c0.35-0.43,0.99-0.49,1.42-0.14l26.61,21.67C837.41,978.38,837.47,979.02,837.12,979.45z"/>
				<path class="st1" d="M837.12,978.77l-1.51-1.85c-0.35-0.43-0.99-0.49-1.42-0.14l-26.61,21.67c-0.43,0.35-0.49,0.99-0.14,1.42
					l1.51,1.85c0.35,0.43,0.99,0.49,1.42,0.14l26.61-21.67C837.41,979.84,837.47,979.2,837.12,978.77z"/>
			</g>
		</g>
	</g>
</g>
</svg>
