<?xml version="1.0" encoding="utf-8"?>
<!-- Generator: Adobe Illustrator 23.0.3, SVG Export Plug-In . SVG Version: 6.00 Build 0)  -->
<svg version="1.1" xmlns="http://www.w3.org/2000/svg" xmlns:xlink="http://www.w3.org/1999/xlink" x="0px" y="0px"
	 viewBox="0 0 1799.6 1200.87" style="enable-background:new 0 0 1799.6 1200.87;" xml:space="preserve">
<style type="text/css">
	.st0{fill:#E3E5FC;}
	.st1{fill:#A7ADFF;}
	.st2{fill:#FFFFFF;}
	.st3{fill:#5A54FF;}
	.st4{fill:#F44E4E;}
	.st5{fill:#EAC2AB;}
	.st6{fill:#D4A79A;}
	.st7{fill:#FDC510;}
	.st8{fill:#4B369D;}
</style>
<g id="UI">
	<g id="Calendar">
		<ellipse class="st0" cx="1017.72" cy="1054.44" rx="390.17" ry="18.72"/>
		<g>
			<path class="st1" d="M1521.62,221.36c0-24.73-20.23-44.96-44.96-44.96H560.38c-24.73,0-44.96,20.23-44.96,44.96V323.6h1006.21
				V221.36z"/>
			<rect x="515.41" y="323.6" class="st0" width="1006.21" height="611.04"/>
		</g>
		<path class="st2" d="M702.91,516.82h-89.59c-13.05,0-23.73-10.68-23.73-23.73v-81.03c0-13.05,10.68-23.73,23.73-23.73h89.59
			c13.05,0,23.73,10.68,23.73,23.73v81.03C726.64,506.14,715.96,516.82,702.91,516.82z"/>
		<path class="st2" d="M942.06,516.82h-89.59c-13.05,0-23.73-10.68-23.73-23.73v-81.03c0-13.05,10.68-23.73,23.73-23.73h89.59
			c13.05,0,23.73,10.68,23.73,23.73v81.03C965.79,506.14,955.11,516.82,942.06,516.82z"/>
		<path class="st2" d="M1181.21,516.82h-89.59c-13.05,0-23.73-10.68-23.73-23.73v-81.03c0-13.05,10.68-23.73,23.73-23.73h89.59
			c13.05,0,23.73,10.68,23.73,23.73v81.03C1204.94,506.14,1194.26,516.82,1181.21,516.82z"/>
		<path class="st2" d="M1420.36,516.82h-89.59c-13.05,0-23.73-10.68-23.73-23.73v-81.03c0-13.05,10.68-23.73,23.73-23.73h89.59
			c13.05,0,23.73,10.68,23.73,23.73v81.03C1444.09,506.14,1433.41,516.82,1420.36,516.82z"/>
		<path class="st2" d="M702.91,689.62h-89.59c-13.05,0-23.73-10.68-23.73-23.73v-81.03c0-13.05,10.68-23.73,23.73-23.73h89.59
			c13.05,0,23.73,10.68,23.73,23.73v81.03C726.64,678.94,715.96,689.62,702.91,689.62z"/>
		<path class="st2" d="M942.06,689.62h-89.59c-13.05,0-23.73-10.68-23.73-23.73v-81.03c0-13.05,10.68-23.73,23.73-23.73h89.59
			c13.05,0,23.73,10.68,23.73,23.73v81.03C965.79,678.94,955.11,689.62,942.06,689.62z"/>
		<path class="st2" d="M1181.21,689.62h-89.59c-13.05,0-23.73-10.68-23.73-23.73v-81.03c0-13.05,10.68-23.73,23.73-23.73h89.59
			c13.05,0,23.73,10.68,23.73,23.73v81.03C1204.94,678.94,1194.26,689.62,1181.21,689.62z"/>
		<path class="st2" d="M1420.36,689.62h-89.59c-13.05,0-23.73-10.68-23.73-23.73v-81.03c0-13.05,10.68-23.73,23.73-23.73h89.59
			c13.05,0,23.73,10.68,23.73,23.73v81.03C1444.09,678.94,1433.41,689.62,1420.36,689.62z"/>
		<path class="st2" d="M702.91,862.42h-89.59c-13.05,0-23.73-10.68-23.73-23.73v-81.03c0-13.05,10.68-23.73,23.73-23.73h89.59
			c13.05,0,23.73,10.68,23.73,23.73v81.03C726.64,851.74,715.96,862.42,702.91,862.42z"/>
		<path class="st2" d="M942.06,862.42h-89.59c-13.05,0-23.73-10.68-23.73-23.73v-81.03c0-13.05,10.68-23.73,23.73-23.73h89.59
			c13.05,0,23.73,10.68,23.73,23.73v81.03C965.79,851.74,955.11,862.42,942.06,862.42z"/>
		<path class="st2" d="M1181.21,862.42h-89.59c-13.05,0-23.73-10.68-23.73-23.73v-81.03c0-13.05,10.68-23.73,23.73-23.73h89.59
			c13.05,0,23.73,10.68,23.73,23.73v81.03C1204.94,851.74,1194.26,862.42,1181.21,862.42z"/>
		<path class="st2" d="M1420.36,862.42h-89.59c-13.05,0-23.73-10.68-23.73-23.73v-81.03c0-13.05,10.68-23.73,23.73-23.73h89.59
			c13.05,0,23.73,10.68,23.73,23.73v81.03C1444.09,851.74,1433.41,862.42,1420.36,862.42z"/>
		<g>
			<g>
				<circle class="st3" cx="743.67" cy="244.07" r="33.6"/>
				<path class="st4" d="M744.99,258.89L744.99,258.89c-10.19,0-18.53-8.34-18.53-18.53v-94.13c0-10.19,8.34-18.53,18.53-18.53h0
					c10.19,0,18.53,8.34,18.53,18.53v94.13C763.52,250.55,755.18,258.89,744.99,258.89z"/>
			</g>
			<g>
				<circle class="st3" cx="926.27" cy="244.07" r="33.6"/>
				<path class="st4" d="M927.59,258.89L927.59,258.89c-10.19,0-18.53-8.34-18.53-18.53v-94.13c0-10.19,8.34-18.53,18.53-18.53l0,0
					c10.19,0,18.53,8.34,18.53,18.53v94.13C946.12,250.55,937.78,258.89,927.59,258.89z"/>
			</g>
			<g>
				<circle class="st3" cx="1108.87" cy="244.07" r="33.6"/>
				<path class="st4" d="M1110.19,258.89L1110.19,258.89c-10.19,0-18.53-8.34-18.53-18.53v-94.13c0-10.19,8.34-18.53,18.53-18.53h0
					c10.19,0,18.53,8.34,18.53,18.53v94.13C1128.72,250.55,1120.38,258.89,1110.19,258.89z"/>
			</g>
			<g>
				<circle class="st3" cx="1291.47" cy="244.07" r="33.6"/>
				<path class="st4" d="M1292.79,258.89L1292.79,258.89c-10.19,0-18.53-8.34-18.53-18.53v-94.13c0-10.19,8.34-18.53,18.53-18.53
					l0,0c10.19,0,18.53,8.34,18.53,18.53v94.13C1311.32,250.55,1302.98,258.89,1292.79,258.89z"/>
			</g>
		</g>
		<g>
			<polygon class="st4" points="643.08,661.97 643.09,661.97 643.08,661.96 			"/>
			<path class="st4" d="M708.77,596.28c-1.73-1.73-4.56-1.73-6.29,0l-56.25,56.25l6.29,6.29l56.25-56.25
				C710.5,600.84,710.5,598.01,708.77,596.28z"/>
			<path class="st4" d="M643.08,655.68l3.14-3.15l-25.44-25.44c-1.73-1.73-4.56-1.73-6.29,0c-1.73,1.73-1.73,4.56,0,6.29
				l28.59,28.59C641.36,660.24,641.36,657.41,643.08,655.68z"/>
			<path class="st4" d="M643.08,655.68c-1.73,1.73-1.73,4.56,0,6.29l0,0c1.73,1.73,4.56,1.73,6.29,0l3.14-3.14l-6.29-6.29
				L643.08,655.68z"/>
		</g>
		<g>
			<path class="st4" d="M1121.01,833.25c-1.38,0-2.76-0.52-3.81-1.57l-28.59-28.59c-1.01-1.01-1.57-2.36-1.57-3.81
				s0.56-2.79,1.57-3.81c2.02-2.03,5.59-2.03,7.61,0l24.78,24.78l55.59-55.59c2.1-2.09,5.51-2.1,7.61,0v0c2.1,2.1,2.1,5.51,0,7.61
				l-59.4,59.4C1123.77,832.73,1122.39,833.25,1121.01,833.25z M1092.43,795.78c-0.94,0-1.82,0.36-2.48,1.02
				c-0.66,0.66-1.02,1.54-1.02,2.48s0.37,1.82,1.02,2.48l28.59,28.59c1.37,1.37,3.6,1.36,4.97,0l59.4-59.4
				c1.36-1.37,1.36-3.6,0-4.96c-1.37-1.37-3.6-1.36-4.97,0l-56.92,56.91l-26.1-26.1C1094.25,796.15,1093.37,795.78,1092.43,795.78z"
				/>
		</g>
		<g>
			<polygon class="st4" points="878.72,485.42 878.72,485.42 878.72,485.42 			"/>
			<path class="st4" d="M944.41,419.73c-1.73-1.73-4.56-1.73-6.29,0l-56.25,56.25l6.29,6.29l56.25-56.25
				C946.13,424.29,946.13,421.46,944.41,419.73z"/>
			<path class="st4" d="M878.72,479.13l3.14-3.15l-25.44-25.44c-1.73-1.73-4.56-1.73-6.29,0c-1.73,1.73-1.73,4.56,0,6.29
				l28.59,28.59C876.99,483.69,876.99,480.86,878.72,479.13z"/>
			<path class="st4" d="M878.72,479.13c-1.73,1.73-1.73,4.56,0,6.29l0,0c1.73,1.73,4.56,1.73,6.29,0l3.14-3.14l-6.29-6.29
				L878.72,479.13z"/>
		</g>
		<g>
			<path class="st0" d="M943.9,593.33h-93.26c-2.94,0-5.34-2.4-5.34-5.34v0c0-2.94,2.4-5.34,5.34-5.34h93.26
				c2.94,0,5.34,2.4,5.34,5.34v0C949.24,590.93,946.84,593.33,943.9,593.33z"/>
			<path class="st0" d="M943.9,619.27h-93.26c-2.94,0-5.34-2.4-5.34-5.34l0,0c0-2.94,2.4-5.34,5.34-5.34h93.26
				c2.94,0,5.34,2.4,5.34,5.34l0,0C949.24,616.87,946.84,619.27,943.9,619.27z"/>
			<path class="st0" d="M943.9,645.21h-93.26c-2.94,0-5.34-2.4-5.34-5.34l0,0c0-2.94,2.4-5.34,5.34-5.34h93.26
				c2.94,0,5.34,2.4,5.34,5.34l0,0C949.24,642.81,946.84,645.21,943.9,645.21z"/>
			<path class="st0" d="M943.9,671.15h-93.26c-2.94,0-5.34-2.4-5.34-5.34l0,0c0-2.94,2.4-5.34,5.34-5.34h93.26
				c2.94,0,5.34,2.4,5.34,5.34l0,0C949.24,668.75,946.84,671.15,943.9,671.15z"/>
		</g>
		<g>
			<path class="st0" d="M704.75,767.5h-93.26c-2.94,0-5.34-2.4-5.34-5.34l0,0c0-2.94,2.4-5.34,5.34-5.34h93.26
				c2.94,0,5.34,2.4,5.34,5.34l0,0C710.09,765.1,707.68,767.5,704.75,767.5z"/>
			<path class="st0" d="M704.75,793.44h-93.26c-2.94,0-5.34-2.4-5.34-5.34l0,0c0-2.94,2.4-5.34,5.34-5.34h93.26
				c2.94,0,5.34,2.4,5.34,5.34l0,0C710.09,791.04,707.68,793.44,704.75,793.44z"/>
			<path class="st0" d="M704.75,819.38h-93.26c-2.94,0-5.34-2.4-5.34-5.34l0,0c0-2.94,2.4-5.34,5.34-5.34h93.26
				c2.94,0,5.34,2.4,5.34,5.34l0,0C710.09,816.98,707.68,819.38,704.75,819.38z"/>
			<path class="st0" d="M704.75,845.33h-93.26c-2.94,0-5.34-2.4-5.34-5.34l0,0c0-2.94,2.4-5.34,5.34-5.34h93.26
				c2.94,0,5.34,2.4,5.34,5.34l0,0C710.09,842.92,707.68,845.33,704.75,845.33z"/>
		</g>
		<g>
			<path class="st0" d="M1423.67,419h-93.26c-2.94,0-5.34-2.4-5.34-5.34l0,0c0-2.94,2.4-5.34,5.34-5.34h93.26
				c2.94,0,5.34,2.4,5.34,5.34l0,0C1429,416.6,1426.6,419,1423.67,419z"/>
			<path class="st0" d="M1423.67,444.94h-93.26c-2.94,0-5.34-2.4-5.34-5.34l0,0c0-2.94,2.4-5.34,5.34-5.34h93.26
				c2.94,0,5.34,2.4,5.34,5.34l0,0C1429,442.54,1426.6,444.94,1423.67,444.94z"/>
			<path class="st0" d="M1423.67,470.88h-93.26c-2.94,0-5.34-2.4-5.34-5.34v0c0-2.94,2.4-5.34,5.34-5.34h93.26
				c2.94,0,5.34,2.4,5.34,5.34v0C1429,468.48,1426.6,470.88,1423.67,470.88z"/>
			<path class="st0" d="M1423.67,496.82h-93.26c-2.94,0-5.34-2.4-5.34-5.34v0c0-2.94,2.4-5.34,5.34-5.34h93.26
				c2.94,0,5.34,2.4,5.34,5.34v0C1429,494.42,1426.6,496.82,1423.67,496.82z"/>
		</g>
		<g>
			<path class="st0" d="M1183.05,419h-93.26c-2.94,0-5.34-2.4-5.34-5.34l0,0c0-2.94,2.4-5.34,5.34-5.34h93.26
				c2.94,0,5.34,2.4,5.34,5.34l0,0C1188.39,416.6,1185.99,419,1183.05,419z"/>
			<path class="st0" d="M1183.05,444.94h-93.26c-2.94,0-5.34-2.4-5.34-5.34l0,0c0-2.94,2.4-5.34,5.34-5.34h93.26
				c2.94,0,5.34,2.4,5.34,5.34l0,0C1188.39,442.54,1185.99,444.94,1183.05,444.94z"/>
			<path class="st0" d="M1183.05,470.88h-93.26c-2.94,0-5.34-2.4-5.34-5.34v0c0-2.94,2.4-5.34,5.34-5.34h93.26
				c2.94,0,5.34,2.4,5.34,5.34v0C1188.39,468.48,1185.99,470.88,1183.05,470.88z"/>
			<path class="st0" d="M1183.05,496.82h-93.26c-2.94,0-5.34-2.4-5.34-5.34v0c0-2.94,2.4-5.34,5.34-5.34h93.26
				c2.94,0,5.34,2.4,5.34,5.34v0C1188.39,494.42,1185.99,496.82,1183.05,496.82z"/>
		</g>
		<g>
			<path class="st0" d="M1183.05,592.22h-93.26c-2.94,0-5.34-2.4-5.34-5.34v0c0-2.94,2.4-5.34,5.34-5.34h93.26
				c2.94,0,5.34,2.4,5.34,5.34v0C1188.39,589.82,1185.99,592.22,1183.05,592.22z"/>
			<path class="st0" d="M1183.05,618.16h-93.26c-2.94,0-5.34-2.4-5.34-5.34l0,0c0-2.94,2.4-5.34,5.34-5.34h93.26
				c2.94,0,5.34,2.4,5.34,5.34l0,0C1188.39,615.76,1185.99,618.16,1183.05,618.16z"/>
			<path class="st0" d="M1183.05,644.1h-93.26c-2.94,0-5.34-2.4-5.34-5.34l0,0c0-2.94,2.4-5.34,5.34-5.34h93.26
				c2.94,0,5.34,2.4,5.34,5.34l0,0C1188.39,641.7,1185.99,644.1,1183.05,644.1z"/>
			<path class="st0" d="M1183.05,670.04h-93.26c-2.94,0-5.34-2.4-5.34-5.34l0,0c0-2.94,2.4-5.34,5.34-5.34h93.26
				c2.94,0,5.34,2.4,5.34,5.34l0,0C1188.39,667.64,1185.99,670.04,1183.05,670.04z"/>
		</g>
		<g>
			<path class="st0" d="M1423.67,591.8h-93.26c-2.94,0-5.34-2.4-5.34-5.34l0,0c0-2.94,2.4-5.34,5.34-5.34h93.26
				c2.94,0,5.34,2.4,5.34,5.34l0,0C1429,589.4,1426.6,591.8,1423.67,591.8z"/>
			<path class="st0" d="M1423.67,617.74h-93.26c-2.94,0-5.34-2.4-5.34-5.34l0,0c0-2.94,2.4-5.34,5.34-5.34h93.26
				c2.94,0,5.34,2.4,5.34,5.34l0,0C1429,615.34,1426.6,617.74,1423.67,617.74z"/>
			<path class="st0" d="M1423.67,643.68h-93.26c-2.94,0-5.34-2.4-5.34-5.34l0,0c0-2.94,2.4-5.34,5.34-5.34h93.26
				c2.94,0,5.34,2.4,5.34,5.34l0,0C1429,641.28,1426.6,643.68,1423.67,643.68z"/>
			<path class="st0" d="M1423.67,669.62h-93.26c-2.94,0-5.34-2.4-5.34-5.34l0,0c0-2.94,2.4-5.34,5.34-5.34h93.26
				c2.94,0,5.34,2.4,5.34,5.34l0,0C1429,667.22,1426.6,669.62,1423.67,669.62z"/>
		</g>
		<g>
			<path class="st0" d="M1423.67,764.6h-93.26c-2.94,0-5.34-2.4-5.34-5.34l0,0c0-2.94,2.4-5.34,5.34-5.34h93.26
				c2.94,0,5.34,2.4,5.34,5.34l0,0C1429,762.2,1426.6,764.6,1423.67,764.6z"/>
			<path class="st0" d="M1423.67,790.54h-93.26c-2.94,0-5.34-2.4-5.34-5.34l0,0c0-2.94,2.4-5.34,5.34-5.34h93.26
				c2.94,0,5.34,2.4,5.34,5.34l0,0C1429,788.14,1426.6,790.54,1423.67,790.54z"/>
			<path class="st0" d="M1423.67,816.48h-93.26c-2.94,0-5.34-2.4-5.34-5.34l0,0c0-2.94,2.4-5.34,5.34-5.34h93.26
				c2.94,0,5.34,2.4,5.34,5.34l0,0C1429,814.08,1426.6,816.48,1423.67,816.48z"/>
			<path class="st0" d="M1423.67,842.42h-93.26c-2.94,0-5.34-2.4-5.34-5.34l0,0c0-2.94,2.4-5.34,5.34-5.34h93.26
				c2.94,0,5.34,2.4,5.34,5.34l0,0C1429,840.02,1426.6,842.42,1423.67,842.42z"/>
		</g>
		<g>
			<path class="st0" d="M943.9,764.6h-93.26c-2.94,0-5.34-2.4-5.34-5.34l0,0c0-2.94,2.4-5.34,5.34-5.34h93.26
				c2.94,0,5.34,2.4,5.34,5.34l0,0C949.24,762.2,946.84,764.6,943.9,764.6z"/>
			<path class="st0" d="M943.9,790.54h-93.26c-2.94,0-5.34-2.4-5.34-5.34l0,0c0-2.94,2.4-5.34,5.34-5.34h93.26
				c2.94,0,5.34,2.4,5.34,5.34l0,0C949.24,788.14,946.84,790.54,943.9,790.54z"/>
			<path class="st0" d="M943.9,816.48h-93.26c-2.94,0-5.34-2.4-5.34-5.34l0,0c0-2.94,2.4-5.34,5.34-5.34h93.26
				c2.94,0,5.34,2.4,5.34,5.34l0,0C949.24,814.08,946.84,816.48,943.9,816.48z"/>
			<path class="st0" d="M943.9,842.42h-93.26c-2.94,0-5.34-2.4-5.34-5.34l0,0c0-2.94,2.4-5.34,5.34-5.34h93.26
				c2.94,0,5.34,2.4,5.34,5.34l0,0C949.24,840.02,946.84,842.42,943.9,842.42z"/>
		</g>
		<g>
			<path class="st0" d="M704.75,416.1h-93.26c-2.94,0-5.34-2.4-5.34-5.34l0,0c0-2.94,2.4-5.34,5.34-5.34h93.26
				c2.94,0,5.34,2.4,5.34,5.34l0,0C710.09,413.7,707.68,416.1,704.75,416.1z"/>
			<path class="st0" d="M704.75,442.04h-93.26c-2.94,0-5.34-2.4-5.34-5.34l0,0c0-2.94,2.4-5.34,5.34-5.34h93.26
				c2.94,0,5.34,2.4,5.34,5.34l0,0C710.09,439.64,707.68,442.04,704.75,442.04z"/>
			<path class="st0" d="M704.75,467.98h-93.26c-2.94,0-5.34-2.4-5.34-5.34v0c0-2.94,2.4-5.34,5.34-5.34h93.26
				c2.94,0,5.34,2.4,5.34,5.34v0C710.09,465.58,707.68,467.98,704.75,467.98z"/>
			<path class="st0" d="M704.75,493.92h-93.26c-2.94,0-5.34-2.4-5.34-5.34v0c0-2.94,2.4-5.34,5.34-5.34h93.26
				c2.94,0,5.34,2.4,5.34,5.34v0C710.09,491.52,707.68,493.92,704.75,493.92z"/>
		</g>
		<g>
			<polygon class="st4" points="1242.89,749.93 1242.89,749.93 1242.89,749.93 			"/>
			<path class="st4" d="M1326.38,666.44c-2.2-2.2-5.8-2.2-7.99,0l-71.51,71.51l7.99,7.99l71.51-71.51
				C1328.58,672.23,1328.58,668.63,1326.38,666.44z"/>
			<path class="st4" d="M1242.89,741.94l4-4l-32.34-32.34c-2.2-2.2-5.8-2.2-7.99,0c-2.2,2.2-2.2,5.8,0,7.99l36.34,36.34
				C1240.69,747.73,1240.69,744.14,1242.89,741.94z"/>
			<path class="st4" d="M1242.89,741.94c-2.2,2.2-2.2,5.8,0,7.99l0,0c2.2,2.2,5.8,2.2,7.99,0l4-4l-7.99-7.99L1242.89,741.94z"/>
		</g>
	</g>
	<g id="Button">
		<path class="st1" d="M577.37,833.94H412.08c-19.95,0-36.27-16.32-36.27-36.27v0c0-19.95,16.32-36.27,36.27-36.27h165.29
			c19.95,0,36.27,16.32,36.27,36.27v0C613.64,817.62,597.32,833.94,577.37,833.94z"/>
		<g>
			<path class="st2" d="M421.68,825.24c-15.2,0-27.57-12.37-27.57-27.57s12.37-27.57,27.57-27.57c15.2,0,27.57,12.37,27.57,27.57
				S436.88,825.24,421.68,825.24z M421.68,773.85c-13.13,0-23.82,10.69-23.82,23.82s10.68,23.82,23.82,23.82
				c13.13,0,23.82-10.69,23.82-23.82S434.82,773.85,421.68,773.85z"/>
		</g>
		<g>
			<rect x="419.07" y="810.7" class="st2" width="3.75" height="7.18"/>
		</g>
		<g>
			<rect x="419.07" y="777.55" class="st2" width="3.75" height="7.18"/>
		</g>
		<g>
			
				<rect x="419.31" y="789.33" transform="matrix(0.7637 -0.6455 0.6455 0.7637 -409.313 464.1051)" class="st2" width="20.05" height="3.75"/>
		</g>
	</g>
	<g id="Button_1_">
		<g>
			<path class="st0" d="M450.96,730.54H285.67c-19.95,0-36.27-16.32-36.27-36.27v0c0-19.95,16.32-36.27,36.27-36.27h165.29
				c19.95,0,36.27,16.32,36.27,36.27v0C487.23,714.21,470.91,730.54,450.96,730.54z"/>
		</g>
		<g>
			<polygon class="st1" points="297.69,707.07 297.69,707.07 297.69,707.07 			"/>
			<path class="st1" d="M330.93,673.83c-0.88-0.88-2.31-0.88-3.18,0l-28.47,28.47l3.18,3.18l28.47-28.47
				C331.81,676.14,331.81,674.71,330.93,673.83z"/>
			<path class="st1" d="M297.69,703.89l1.59-1.59l-12.88-12.88c-0.88-0.88-2.31-0.88-3.18,0c-0.88,0.88-0.88,2.31,0,3.18
				l14.47,14.47C296.82,706.2,296.82,704.77,297.69,703.89z"/>
			<path class="st1" d="M297.69,703.89c-0.88,0.88-0.88,2.31,0,3.18l0,0c0.88,0.88,2.31,0.88,3.18,0l1.59-1.59l-3.18-3.18
				L297.69,703.89z"/>
		</g>
	</g>
</g>
<g id="Characters">
	<g id="Woman">
		<path id="Arm_1_" class="st5" d="M1419.96,765.25c0,0-23.63,41.66-61.71,31.23c-38.08-10.43-64.49-65.34-75.86-59.23
			s-38.56-3.32-8.17-11.84c13.95-3.91,16.04-3.32,17.64-2.17c21.05,15.11,45.6,38.6,58.46,49.62c13.84,11.86,31.12,3.32,46.93-5.58
			C1413.06,758.39,1473.3,739.5,1419.96,765.25z"/>
		<g id="Head">
			<path id="Neck" class="st6" d="M1445.55,687.25c0,0,5.43,39.76,5.43,39.76c9.6,2.82,19.66,8.21,29.77,8.2
				c-0.46-7.37-7.68-15.81-11-22.77c-4.02-8.44,5.82-27.58,6.27-37.05C1477.19,650.64,1445.55,687.25,1445.55,687.25z"/>
			<path id="Face" class="st5" d="M1436.75,627.27c-4.83-1.3-18.64,3.88-20.89,8.35c-5.45,10.81-1.32,23.39-2.62,36.09
				c-0.87,8.52,5.21,25.95,11.82,32.85c9.78,10.23,22.1-3.6,29.49-12.14c10.42-12.04,14.96-28.05,13.54-43.91
				c-0.51-5.7-2.06-11.71-6.32-15.53c-4.11-3.68-9.9-4.63-15.36-5.43C1443.01,627.06,1440.06,628.16,1436.75,627.27z"/>
		</g>
		<g id="Leg_1_">
			<path id="Skin_1_" class="st5" d="M1156.08,985.05l-28.63,32.7l9.95,10.69l27.84-35.89
				C1165.25,992.55,1160.66,985.93,1156.08,985.05z"/>
			<path id="Shoe_1_" class="st7" d="M1063.91,998.61c0,0,8.41,9.2,27.43,21.54s40.74,25.2,46.38,24.47
				c5.64-0.74,21.93-24.33,15.33-27.96c-6.61-3.62-14.42,4.53-21.4-10.39c-5.98-12.78-21.51-3.37-40.91-9.22
				C1071.34,991.2,1063.49,988.82,1063.91,998.61z"/>
			<path id="Leg_3_" class="st8" d="M1253.16,880.7c-3.02-0.02-6.14,0.01-8.91,1.2c-3.08,1.32-5.39,3.91-7.61,6.42
				c-15.87,17.91-32.28,35.34-49.2,52.26c-16.44,16.43-33.69,32.61-54.46,43.06c1.72,3.34,5.48,4.98,8.89,6.56
				c14.03,6.5,26.58,16.16,36.45,28.06c0.92-9.19,5.2-18,11.84-24.41c4.74-4.58,10.54-7.88,16.07-11.45
				c24.93-16.07,45.42-38.16,69.57-55.37c1.08-0.77,2.2-1.55,3.48-1.91c1.68-0.48,3.47-0.2,5.2,0.08
				c37.85,6.06,76.15,9.33,114.48,9.79c8.86,0.11,19.92-1.42,22.72-9.83c11.32-33.98-106.31-41.29-121.49-42.49
				C1285.26,881.49,1268.06,878.74,1253.16,880.7z"/>
		</g>
		<path id="Body" class="st4" d="M1445.46,719.97c-15.54,5.88-32.95,25.88-38.52,34.12c-16.98,25.13-6.53,48.37-31.49,84.89
			c-2.4,3.52-1.59,8.64-0.03,12.6c2.3,5.83,8.7,8.72,14.42,11.28c22.46,10.06,43.3,23.72,61.48,40.32
			c10.23-49.35,16.71-99.48,19.37-149.81c0.43-8.09,0.7-16.53-2.61-24.01C1463.02,717.92,1454.56,716.52,1445.46,719.97z"/>
		<path id="Arm" class="st5" d="M1474.68,742.85c8.3,20.04,2.02,43.53,5.6,65.16c3.58,21.63,2.69,42.79,7.73,64.18
			c3.27,13.89,6.01,27.88,8.08,41.96c0.15,1.05,0.34,2.17,1.11,2.96c0.86,0.88,2.24,1.13,3.52,1.34
			c11.94,1.93,32.75,1.47,39.98,11.52c-12.13,4.84-27.58,3.13-39.85-1.01c2.19,2.23,4.38,4.45,6.57,6.68
			c-4.95,2.4-11.13,0.23-15-3.67c-3.87-3.91-5.94-9.19-7.91-14.33c-10.93-28.46-22.73-56.52-27.3-86.88
			c-2.58-17.17-2.51-34.66-6.24-51.66c-1.15-5.26-2.67-10.51-2.61-15.87c0.11-8.61,4.57-17.1,11.87-22.58
			c1.45-1.09,3.06-2.09,4.9-2.46c3.36-0.69,6.88,0.88,9.19,3.2c2.31,2.32,3.63,5.3,4.85,8.22"/>
		<g id="Leg">
			<path id="Skin" class="st5" d="M1264.45,958.04l-4.57,43.22l14.29,3.01l2.09-45.38C1276.26,958.9,1268.69,956.13,1264.45,958.04z
				"/>
			<path id="Shoe" class="st7" d="M1205.29,1024.18c0,0,10.71,2.37,30.64,1.63c19.93-0.74,42.08-2.46,45.76-5.85
				c3.68-3.38,3.48-28.61-3.11-27.88c-6.59,0.73-8.09,10.56-20.66,3.34c-10.77-6.18-17.19,8.45-34.11,14.05
				C1206.89,1015.09,1200.03,1017.34,1205.29,1024.18z"/>
			<path id="Leg_2_" class="st3" d="M1447.16,860.77c5.6,2.25,11.34,5.34,14.13,10.7c1.6,3.08,2.06,6.62,2.31,10.09
				c1,13.51-1.2,28.36-10.93,37.79c-4.76,4.62-10.9,7.52-17.07,9.96c-14.61,5.77-30.71,9.39-46.03,5.9
				c-16.84-3.84-30.65-15.76-42.2-28.61c-9.81-10.92-18.55-22.82-26.04-35.45c-4.19-7.06-8.7-14.96-16.51-17.48
				c-6.14,18.61-1.66,38.94-3.78,58.42c-1.2,11.06-4.54,21.8-5.64,32.87c-1.1,11.07,0.36,23.08,7.54,31.58
				c-6.03,5.72-15.67,3.42-23.83,1.9c-10.18-1.89-20.69-1.92-30.88-0.11c-2.59,0.46-5.56,0.95-7.59-0.72
				c-1.67-1.37-2.08-3.77-1.99-5.94c0.33-7.29,4.95-13.6,7.31-20.51c2.78-8.16,2.34-16.99,2.77-25.6
				c1.41-28.7,12.67-56.3,13.55-85.02c0.25-8.23-0.35-16.56,1.35-24.61s6.21-16.08,13.74-19.4c8.82-3.88,20.68-3.31,27.96,2.99
				c4.48,3.88,51.26,33.93,91.56,53.12C1413.04,860.34,1430.58,854.1,1447.16,860.77z"/>
		</g>
		<path id="Hair" class="st8" d="M1541.41,807.05c-1.74-0.11-3.37-0.46-4.5-1.69c-1.96-2.14-1.3-5.47-1.66-8.35
			c-0.79-6.32-5.95-10.91-6.32-17.4c-0.43-7.56,4.13-14.46,1.74-22.16c-2.41-7.76-8.96-15.25-14.25-21.2
			c-4.35-4.9-10.46-8.77-13.3-14.86c-2.67-5.73-0.57-12.14,0.33-18.02c0.98-6.45-1.92-9.8-2.49-15.93
			c-0.39-4.16,1.86-8.05,1.49-12.18c0.57-2.51,1.1-5.11,1.49-7.63c1.68-10.67-8.89-16.47-14.15-23.73
			c-5.5-7.6-0.12-20.76-6.48-29.74c-8.48-11.97-26.39-13.63-39.66-11c-9.77,1.94-13.93,8.03-21,14.07
			c-3.01,2.57-7.31,3.08-10.71,4.95c-5,2.74-8.3,6.91-10.66,12.29c-0.6,1.36-0.92,2.88-0.87,4.35c0.05,1.41,0.43,2.78,1.26,3.92
			c2.45,3.41,7.57,3.5,11.56,2.17c16.09-5.36,38.03-4.43,38.51,17.98c0.21,9.57-4.01,18.67-5.22,28.09
			c-1.35,10.48,12.01,15.02,16.12,22.82c4,7.58,6.73,17.48,6.62,26.15c0,0-6.76,11.65-6.1,24.29c0.52,10.01,6.82,9.98,12.16,13.61
			c3.28,2.23,1.44,11.7,2.26,15.03c1.58,6.42,6.87,10.67,8.96,16.81c2.25,6.63,1.99,10.93,8.46,15.38
			c13.65,9.4,32.02,7.12,45.26-1.93c3.07-2.1,10.37-7.16,9.94-11.72C1549.71,806.37,1545.3,807.31,1541.41,807.05z"/>
	</g>
</g>
</svg>
