<?xml version="1.0" encoding="utf-8"?>
<!-- Generator: Adobe Illustrator 23.0.3, SVG Export Plug-In . SVG Version: 6.00 Build 0)  -->
<svg version="1.1" xmlns="http://www.w3.org/2000/svg" xmlns:xlink="http://www.w3.org/1999/xlink" x="0px" y="0px"
	 viewBox="0 0 1799.6 1200.87" style="enable-background:new 0 0 1799.6 1200.87;" xml:space="preserve">
<style type="text/css">
	.st0{fill:#D4A79A;}
	.st1{fill:#EAC2AB;}
	.st2{fill:#4B369D;}
	.st3{fill:#F44E4E;}
	.st4{fill:#D7384E;}
	.st5{fill:#E3E5FC;}
	.st6{fill:#FFFFFF;}
	.st7{opacity:0.26;fill:#A7ADFF;}
	.st8{opacity:0.13;fill:#A7ADFF;}
	.st9{opacity:0.39;fill:#FFFFFF;}
	.st10{fill:#A7ADFF;}
	.st11{opacity:0.51;fill:#FFFFFF;}
	.st12{opacity:0.36;fill:#F44E4E;}
</style>
<g id="Characters">
	<g id="Man">
		<g id="Head">
			<path id="Neck" class="st0" d="M776.02,462.94l-27.52,81.52l-71.75,6.92c0,0,54.84-46.13,62.39-98.72
				S776.02,462.94,776.02,462.94z"/>
			<path id="Face" class="st1" d="M881.12,309.74c0,0,8.9,22.63-20.84,76.11s-65.73,96.2-82.05,87.93
				c-45.11-22.86-52.45-61.29-60.93-94.88c-10.4-41.19,54.08-116.61,54.08-116.61l43.82-9.93L881.12,309.74z"/>
			<path id="Hair" class="st2" d="M939.98,309.54c5-13.62,4.2-28.91-5.75-43.63c-2.88-4.26-7.07-7.62-11.95-8.48
				c-3.67-0.65-7.66,0.11-11.04-1.48c-10.15-4.74-7.05-20.79-16.04-26.73c-6.71-4.43-15.63,0.27-23.64-0.06
				c-6.05-0.25-11.48-3.41-16.85-6.2c-15.12-7.85-27.85-19.71-43.76-26.29c-13.43-5.55-28.34-8.03-42.78-4.79
				c-15.07,3.38-28.08,13.69-37.27,27.23c-5.49,8.1-9.22,17.78-9.37,27.6c0.12-8.07-15.66-3.77-18.69-1.41
				c-11.85,9.22-20.34,34.03-19.54,48.82c0.63,11.71,3.96,22.86,4.24,34.64c0.61,25.77-2.16,68.67,36,69.37
				c-1.01-13.12-1.92-26.49,0.85-39.51c4.95-23.19,15.26-53.84,36.68-67.02c45.23-27.81,60.45,44.53,94.66,58.22
				C887.58,362.59,928.65,340.38,939.98,309.54z"/>
			<path id="Ear" class="st1" d="M736.11,316.98c0,0-12.05-24.78-18.59,6.09c-6.53,30.88,7.61,41.57,7.61,41.57L736.11,316.98z"/>
		</g>
		<path id="Body_1_" class="st3" d="M812.45,753.6c-3.27-42.3-9.12-87.04-18.91-129.38c-7.57-32.73-14.68-77.55-46.88-96.2
			c-60.31-34.94-99.12,51.32-109.77,96.72c-12.14,51.72-10.6,106.21-11.16,159c-0.5,47.34-7.16,99.51-0.72,146.04
			c1.14,8.21,4.14,16.63,10.57,21.86c16.35,13.3,33.21-4.33,46.97-12.17c12.87-7.34,26.5-6.13,40.17-11.06
			c12.01-4.33,17.92-13.31,27.97-20.29c26.36-18.32,54.74,11.15,83.31,5.63c62.1-12,14.69,4.93-10.3-119.83
			C821.15,781.21,813.61,768.66,812.45,753.6z"/>
		<path id="Arm" class="st1" d="M973.89,660.36c23.59-15.21,32.73-49.35,54.55-67.65c8.89-7.45,19.43-11.87,29.88-15.96
			c14.92-5.85,29.99-11.24,45.17-16.16c-0.95,7.76-6.93,13.51-13.14,16.94c-6.21,3.43-13.08,5.38-18.86,9.68
			c-2.55,1.89-4.89,4.31-6.21,7.42c-2.97,6.99-0.09,15.39-1.34,23.02c-2.35,14.31-17.03,20.15-28.28,27.15
			c-23.23,14.45-38.24,42.92-62.45,55.12c0,0-181.68,150.85-204.08,146.68c-22.4-4.17-53.31-209.92-53.31-209.92
			s-21.32-106.04,34.69-55.24s21.53,219.55,49.21,202.13C827.38,766.14,973.89,660.36,973.89,660.36z"/>
		<path id="Body" class="st4" d="M790.84,665.44c0,0-6.43-130.7-60.64-119.91s-19.4,157.5-19.4,157.5l88.46-18.94L790.84,665.44z"/>
	</g>
</g>
<g id="UI">
	<g id="Button">
		<g>
			<path class="st5" d="M913.09,985.21H547.21c-16.28,0-29.6-13.32-29.6-29.6v-41.73c0-16.28,13.32-29.6,29.6-29.6h365.88
				c16.28,0,29.6,13.32,29.6,29.6v41.73C942.68,971.89,929.36,985.21,913.09,985.21z"/>
		</g>
		<g>
			<path class="st3" d="M721.37,1010.42H476.7c-10.89,0-19.79-8.91-19.79-19.79v-27.9c0-10.89,8.91-19.79,19.79-19.79h244.67
				c10.89,0,19.79,8.91,19.79,19.79v27.9C741.16,1001.52,732.25,1010.42,721.37,1010.42z"/>
			<g>
				<path class="st6" d="M708.73,978.34l-0.9,1.1c-0.35,0.43-0.99,0.49-1.42,0.14l-20.41-16.62c-0.43-0.35-0.49-0.99-0.14-1.42
					l0.9-1.1c0.35-0.43,0.99-0.49,1.42-0.14l20.41,16.62C709.01,977.27,709.08,977.91,708.73,978.34z"/>
				<path class="st6" d="M708.73,977.47l-0.9-1.1c-0.35-0.43-0.99-0.49-1.42-0.14l-20.41,16.62c-0.43,0.35-0.49,0.99-0.14,1.42
					l0.9,1.1c0.35,0.43,0.99,0.49,1.42,0.14l20.41-16.62C709.01,978.53,709.08,977.89,708.73,977.47z"/>
			</g>
			<g>
				<path class="st6" d="M680.23,978.34l-0.9,1.1c-0.35,0.43-0.99,0.49-1.42,0.14l-20.41-16.62c-0.43-0.35-0.49-0.99-0.14-1.42
					l0.9-1.1c0.35-0.43,0.99-0.49,1.42-0.14l20.41,16.62C680.52,977.27,680.58,977.91,680.23,978.34z"/>
				<path class="st6" d="M680.23,977.47l-0.9-1.1c-0.35-0.43-0.99-0.49-1.42-0.14l-20.41,16.62c-0.43,0.35-0.49,0.99-0.14,1.42
					l0.9,1.1c0.35,0.43,0.99,0.49,1.42,0.14l20.41-16.62C680.52,978.53,680.58,977.89,680.23,977.47z"/>
			</g>
			<g>
				<path class="st6" d="M649.13,978.34l-0.9,1.1c-0.35,0.43-0.99,0.49-1.42,0.14l-20.41-16.62c-0.43-0.35-0.49-0.99-0.14-1.42
					l0.9-1.1c0.35-0.43,0.99-0.49,1.42-0.14l20.41,16.62C649.42,977.27,649.48,977.91,649.13,978.34z"/>
				<path class="st6" d="M649.13,977.47l-0.9-1.1c-0.35-0.43-0.99-0.49-1.42-0.14l-20.41,16.62c-0.43,0.35-0.49,0.99-0.14,1.42
					l0.9,1.1c0.35,0.43,0.99,0.49,1.42,0.14l20.41-16.62C649.42,978.53,649.48,977.89,649.13,977.47z"/>
			</g>
		</g>
	</g>
	<g id="Tabs">
		<g>
			<path class="st7" d="M1300.14,697.55L929.76,825.96c-23.5,0-42.55-19.05-42.55-42.55V600.53c0-23.5,19.05-42.55,42.55-42.55
				l370.38-128.41c23.5,0,42.55,19.05,42.55,42.55V655C1342.69,678.5,1323.64,697.55,1300.14,697.55z"/>
			<path class="st8" d="M1277.28,686.76L906.9,815.17c-23.5,0-42.55-19.05-42.55-42.55V589.75c0-23.5,19.05-42.55,42.55-42.55
				l370.38-128.41c23.5,0,42.55,19.05,42.55,42.55v182.87C1319.83,667.71,1300.78,686.76,1277.28,686.76z"/>
			<path class="st9" d="M1054.41,632.09l-114.28,39.62c-7.25,0-13.13-5.88-13.13-13.13v-56.43c0-7.25,5.88-13.13,13.13-13.13
				l114.28-39.62c7.25,0,13.13,5.88,13.13,13.13v56.43C1067.54,626.21,1061.66,632.09,1054.41,632.09z"/>
			<g>
				<path class="st10" d="M1313.48,368.38L1199.2,408c-7.25,0-13.13-5.88-13.13-13.13v-56.43c0-7.25,5.88-13.13,13.13-13.13
					l114.28-39.62c7.25,0,13.13,5.88,13.13,13.13v56.43C1326.61,362.5,1320.73,368.38,1313.48,368.38z"/>
				<path class="st5" d="M1270.16,353.41l-108.2,37.51c-6.87,0-12.43-5.57-12.43-12.43v-53.42c0-6.87,5.57-12.43,12.43-12.43
					l108.2-37.51c6.87,0,12.43,5.57,12.43,12.43v53.42C1282.59,347.85,1277.02,353.41,1270.16,353.41z"/>
			</g>
			<g>
				<path class="st5" d="M1307.4,788.87l-108.2,37.51c-6.87,0-12.43-5.57-12.43-12.43v-53.42c0-6.87,5.57-12.43,12.43-12.43
					l108.2-37.51c6.87,0,12.43,5.57,12.43,12.43v53.42C1319.83,783.31,1314.27,788.87,1307.4,788.87z"/>
				<path class="st10" d="M1127.85,807.07l-114.28,39.62c-7.25,0-13.13-5.88-13.13-13.13v-56.42c0-7.25,5.88-13.13,13.13-13.13
					l114.28-39.62c7.25,0,13.13,5.88,13.13,13.13v56.43C1140.98,801.19,1135.1,807.07,1127.85,807.07z"/>
			</g>
			<path class="st11" d="M1054.41,735.21l-114.28,39.62c-7.25,0-13.13-5.88-13.13-13.13v-56.43c0-7.25,5.88-13.13,13.13-13.13
				l114.28-39.62c7.25,0,13.13,5.88,13.13,13.13v56.43C1067.54,729.33,1061.66,735.21,1054.41,735.21z"/>
			<path class="st11" d="M1109.3,700.2L1109.3,700.2c-2.79,0-5.08-2.29-5.08-5.08v-85.18c0-2.79,2.29-5.08,5.08-5.08l0,0
				c2.79,0,5.08,2.29,5.08,5.08v85.18C1114.38,697.91,1112.1,700.2,1109.3,700.2z"/>
			<g>
				<path class="st11" d="M1136.63,533.6L1136.63,533.6c-0.94-2.63,0.45-5.55,3.08-6.49l135.16-48.23c2.63-0.94,5.55,0.45,6.49,3.08
					l0,0c0.94,2.63-0.45,5.55-3.08,6.49l-135.16,48.23C1140.49,537.62,1137.57,536.23,1136.63,533.6z"/>
				<path class="st11" d="M1136.63,552.02L1136.63,552.02c-0.94-2.63,0.45-5.55,3.08-6.49l135.16-48.23
					c2.63-0.94,5.55,0.45,6.49,3.08v0c0.94,2.63-0.45,5.55-3.08,6.49l-135.16,48.23C1140.49,556.03,1137.57,554.65,1136.63,552.02z"
					/>
				<path class="st11" d="M1136.63,570.43L1136.63,570.43c-0.94-2.63,0.45-5.55,3.08-6.49l135.16-48.23
					c2.63-0.94,5.55,0.45,6.49,3.08l0,0c0.94,2.63-0.45,5.55-3.08,6.49l-135.16,48.23C1140.49,574.45,1137.57,573.06,1136.63,570.43
					z"/>
				<path class="st11" d="M1136.63,588.85L1136.63,588.85c-0.94-2.63,0.45-5.55,3.08-6.49l135.16-48.23
					c2.63-0.94,5.55,0.45,6.49,3.08v0c0.94,2.63-0.45,5.55-3.08,6.49l-135.16,48.23C1140.49,592.86,1137.57,591.48,1136.63,588.85z"
					/>
				<path class="st11" d="M1136.63,607.26L1136.63,607.26c-0.94-2.63,0.45-5.55,3.08-6.49l135.16-48.23
					c2.63-0.94,5.55,0.45,6.49,3.08l0,0c0.94,2.63-0.45,5.55-3.08,6.49l-135.16,48.23C1140.49,611.28,1137.57,609.89,1136.63,607.26
					z"/>
				<path class="st11" d="M1136.63,625.67L1136.63,625.67c-0.94-2.63,0.45-5.55,3.08-6.49l135.16-48.23
					c2.63-0.94,5.55,0.45,6.49,3.08l0,0c0.94,2.63-0.45,5.55-3.08,6.49l-135.16,48.23C1140.49,629.69,1137.57,628.3,1136.63,625.67z
					"/>
				<path class="st11" d="M1136.63,644.09L1136.63,644.09c-0.94-2.63,0.45-5.55,3.08-6.49l135.16-48.23
					c2.63-0.94,5.55,0.45,6.49,3.08l0,0c0.94,2.63-0.45,5.55-3.08,6.49l-135.16,48.23C1140.49,648.1,1137.57,646.72,1136.63,644.09z
					"/>
				<path class="st11" d="M1136.63,662.5L1136.63,662.5c-0.94-2.63,0.45-5.55,3.08-6.49l135.16-48.23c2.63-0.94,5.55,0.45,6.49,3.08
					l0,0c0.94,2.63-0.45,5.55-3.08,6.49l-135.16,48.23C1140.49,666.52,1137.57,665.13,1136.63,662.5z"/>
				<path class="st11" d="M1136.63,680.92L1136.63,680.92c-0.94-2.63,0.45-5.55,3.08-6.49l135.16-48.23
					c2.63-0.94,5.55,0.45,6.49,3.08v0c0.94,2.63-0.45,5.55-3.08,6.49l-135.16,48.23C1140.49,684.93,1137.57,683.55,1136.63,680.92z"
					/>
				<path class="st11" d="M1136.63,699.33L1136.63,699.33c-0.94-2.63,0.45-5.55,3.08-6.49l135.16-48.23
					c2.63-0.94,5.55,0.45,6.49,3.08l0,0c0.94,2.63-0.45,5.55-3.08,6.49l-135.16,48.23C1140.49,703.35,1137.57,701.96,1136.63,699.33
					z"/>
			</g>
		</g>
		<g>
			<g>
				<path class="st5" d="M1075.28,386.78c1.26-0.78,2.58-1.48,3.92-2.1c17.85-8.19,39.03-0.33,47.23,17.52
					c8.19,17.85,0.33,39.03-17.52,47.22l-3.56-7.76c13.57-6.23,19.54-22.33,13.32-35.9c-6.23-13.57-22.33-19.54-35.9-13.32
					c-1.02,0.47-2.03,1.01-2.99,1.6L1075.28,386.78z"/>
			</g>
			<g>
				<polygon class="st5" points="1096.6,450.37 1112.36,451.85 1105.76,437.45 				"/>
			</g>
			<g>
				<path class="st5" d="M1093.58,456.15c-1.26,0.78-2.58,1.48-3.92,2.1c-17.85,8.19-39.04,0.33-47.23-17.52
					c-8.19-17.85-0.33-39.03,17.52-47.22l3.56,7.76c-13.57,6.23-19.54,22.33-13.32,35.9c6.23,13.57,22.33,19.54,35.9,13.32
					c1.02-0.47,2.03-1.01,2.99-1.6L1093.58,456.15z"/>
			</g>
			<g>
				<polygon class="st5" points="1072.27,392.56 1056.5,391.08 1063.1,405.47 				"/>
			</g>
		</g>
	</g>
	<g id="Touch">
		<circle class="st12" cx="1109.3" cy="557.47" r="26.09"/>
		<circle class="st3" cx="1109.3" cy="557.47" r="13.05"/>
		<circle class="st12" cx="1109.3" cy="557.47" r="18.45"/>
	</g>
</g>
</svg>
