<?xml version="1.0" encoding="utf-8"?>
<!-- Generator: Adobe Illustrator 23.0.3, SVG Export Plug-In . SVG Version: 6.00 Build 0)  -->
<svg version="1.1" xmlns="http://www.w3.org/2000/svg" xmlns:xlink="http://www.w3.org/1999/xlink" x="0px" y="0px"
	 viewBox="0 0 1799.6 1200.87" style="enable-background:new 0 0 1799.6 1200.87;" xml:space="preserve">
<style type="text/css">
	.st0{fill:#E3E5FC;}
	.st1{opacity:0.27;fill:#A7ADFF;}
	.st2{fill:#F44E4E;}
	.st3{fill:#D7384E;}
	.st4{fill:#5A54FF;}
	.st5{fill:#A7ADFF;}
	.st6{fill:#978CFF;}
	.st7{fill:#FFFFFF;}
</style>
<g id="Nature">
	<g id="Cloud">
		<path class="st0" d="M173.37,1003.62c27.47,17.43,54.91,34.86,82.09,52.75c-27.1-8.06-54.41-16.2-79.31-29.59
			c-24.9-13.38-47.53-32.55-60.23-57.81c-12.69-25.26-14.09-57.13,0.79-81.17c21.05-34.01,71.53-50.76,107.34-31
			c14.88,8.2,29.22,21.66,46.03,19.13c33.55-5.07,56.95-39.05,88.65-50.6c34.24-12.47,72.43-14.26,107.61-4.53
			c14.13,3.91,56.15,19.72,57.84-8.47c0.5-8.45-3.21-16.63-3.44-25.09c-1.14-40.78,111.74-2.71,135.57-22.43
			c19.83-16.41,24.42-43.62,42.82-61.63c21.71-21.25,49.7-34.97,73.71-53.31c28.94-22.12,57.98-60.72,43.65-98.93
			c-6.44-17.17-20.69-33.29-16.97-51.25c2.19-10.61,10.32-18.84,18.07-26.4c21.46-20.96,42.92-41.91,64.38-62.87
			c4.88-4.76,10.77-9.89,17.54-9.05c7.81,0.97,12.49,9.85,12.11,17.71c-0.38,7.86-4.3,15.03-7.32,22.3
			c-14.33,34.48-8.47,76.93,16.19,105.24c14.93,17.14,36.62,30.69,41.47,52.9c5.1,23.34-7.39,55.61,13.77,66.69
			c11,5.76,24.84,0.62,36.64,4.48c23.96,7.85,22.19,41.93,33.38,64.53c14.76,29.81,52.4,38.17,80.4,56.13
			c30.25,19.4,49.97,51.15,75.25,76.69c32.47,32.81,74.96,55.56,120.27,64.38c19.42,3.78,44.05,2.62,53.09-14.97
			c9.48-18.44-4.71-44.31,8.51-60.29c15.15-18.3,43.68-2.37,64.32,9.39c31.47,17.94,68.24,23.47,103.93,29.73
			c35.68,6.26,72.45,14.09,101.64,35.54c29.19,21.46,48.71,60.25,37.03,94.54c-13.07,38.39-57.36,55.71-97.32,62.63
			c-148.84,25.77-298.95-25.64-449.32-39.96c-153.72-14.63-307.21,9.65-460.12,22.53c-157.7,13.29-310.11-1.51-466.84-19.07"/>
		<path class="st1" d="M827.72,697.89c-0.28,13.33,1.5,26.8-0.95,39.91c-2.45,13.1-10.43,26.36-23.27,29.96
			c-18.09,5.07-40.84-9.7-54.61,3.07c-10.5,9.74-5.92,27.41-11.64,40.54c-11.61,26.66-55.37,20.21-72.9,43.41
			c-6.22,8.23-8.59,19.69-17.22,25.35c-10.45,6.84-24.14,1.74-36.24-1.36c-49.15-12.58-99.56,12.43-142.56,39.37
			c-28.78,18.04-56.78,37.31-83.9,57.76c-5.7,4.3-11.63,9-14.09,15.7c-3.91,10.61,2.18,22.22,9.25,31.04
			c33.04,41.19,101.06-1.23,153.75,2.19c91.25,5.91,159.55-10.19,250.95-13.11c64.41-2.06,123.12,9.8,186.5-1.87
			c59.62-10.98,132.62,7.32,193.24,6.78c27.85-0.25,57.93,4.99,81.85-9.27c3.21-1.91,6.31-4.24,8.18-7.47
			c5.39-9.31-1.47-20.82-8.71-28.76c-28.86-31.62-121.44-20.02-146.2-54.95c-66.06-93.2-96.87-89.18-170.06-114.58
			c-9.51-3.3-19.44-6.63-26.58-13.72s-10.44-19.2-4.51-27.33c5.49-7.52,16.42-8.98,22.78-15.79c13.46-14.43-2.38-37.09-2.27-56.82
			c0.05-8.13,2.98-15.95,4.12-23.99c3.72-26.2-22.77-66.73-52.65-57.39C841.09,615.56,828.25,673,827.72,697.89z"/>
	</g>
</g>
<g id="UI">
	<g id="Rocket">
		<path class="st2" d="M820.62,493.74c-8.18,6.11-16.6,12.49-21.51,21.44c-6.71,12.22,3.33,22.28,7.42,33.19
			c2.45,6.51,3.68,11.12,2.32,18.05c-1.15,5.85-8.62,12.03-4.17,18.27c6.25,8.69,17.49,3.61,23.55,15.77
			c4.96,9.95,3.02,21.63,9.4,31.1c6.61,9.82,17.86,17.51,22,28.87c4.36,11.94-5.29,29.52,8.03,37.89c7.1,4.47,17.04,0.68,22.13-5.99
			c10.7-14.03,10.54-40.2,13.21-56.89c1.24-7.75,6.65-17.99,13.8-14.75c4.49,2.04,10.6,34.41,19.98,17.66
			c1.84-3.29,1.59-7.3,1.29-11.05c-0.43-5.29-2.21-11.25-1.4-16.56c2.94-19.28,7.56-29.65,1.57-49.94
			c-0.64-2.18-1.12-4.94,0.65-6.37c0.93-0.75,2.21-0.86,3.4-0.93c7.46-0.47,16.09,0.02,20.09-7.81c4.31-8.44-5.79-14.84-8.65-21.91
			c0.57,1.42,20.56,7.15,23.8,8.93c-6.12-14.62-20.86-25.91-35.87-30.25"/>
		<path class="st3" d="M830.56,563.71c2.15,6.92,5.37,13.18,9.79,18.24c3.47,3.97,7.7,7.4,9.96,12.24c1.94,4.15,2.22,8.95,4,13.18
			c6.88,16.35,19.73-1.1,24.25-9.2c5.6-10.01,11.14-12.96,21.68-12.81c1.18,0.02,2.5-0.03,3.31-0.93c0.76-0.85,0.77-2.16,0.6-3.32
			c-0.93-6.44-7.86-15.41-1.08-20.9c2.68-2.17,6.17-2.82,9.39-3.95c16.15-5.69,15.76-35.36,15.15-49.6
			c-0.23-5.36-2.35-10.47-5.24-14.9c-16.12-24.75-57.71-24.84-77.27-3.88C829.22,504.88,822.79,538.66,830.56,563.71z"/>
		<g>
			<path class="st4" d="M1031.89,514.33c-8.6,6.85-71.11-40.23-132.09-94.5l69.14-55.08
				C1007.96,436.51,1039.72,508.09,1031.89,514.33z"/>
			<path class="st4" d="M728.85,514.33c8.6,6.85,71.11-40.23,132.09-94.5l-69.14-55.08C752.78,436.51,721.02,508.09,728.85,514.33z"
				/>
			<g>
				<path class="st5" d="M784.29,374.89c0,82.22,41.75,127.32,93.25,127.32s93.25-45.1,93.25-127.32
					c0-32.84-10.78-82.54-25.35-130.4H808.92C794.66,292.35,784.29,342.05,784.29,374.89z"/>
				<path class="st4" d="M877.54,104.76c-16.98,0-47.19,67.78-68.63,139.73h136.52C923.52,172.54,893,104.76,877.54,104.76z"/>
			</g>
			<path class="st6" d="M946.68,492.39H808.4c-10.87,0-19.76-8.89-19.76-19.76v0c0-10.87,8.89-19.76,19.76-19.76h138.28
				c10.87,0,19.76,8.89,19.76,19.76v0C966.44,483.5,957.55,492.39,946.68,492.39z"/>
			<path class="st4" d="M940.41,503.17H814.67c-2.96,0-5.39-2.43-5.39-5.39v0c0-2.96,2.43-5.39,5.39-5.39h125.74
				c2.96,0,5.39,2.43,5.39,5.39v0C945.8,500.74,943.38,503.17,940.41,503.17z"/>
			<g>
				<path class="st7" d="M877.54,300.18c-27.04,0-48.95,21.92-48.95,48.95c0,1.5,0.09,2.97,0.22,4.43
					c28.72-11.67,57.23-23.73,85.17-37.04C905.02,306.51,892.03,300.18,877.54,300.18z"/>
				<path class="st0" d="M828.81,353.56c2.24,24.96,23.19,44.52,48.73,44.52c27.04,0,48.95-21.92,48.95-48.95
					c0-12.54-4.76-23.95-12.51-32.61C886.04,329.83,857.53,341.89,828.81,353.56z"/>
			</g>
		</g>
	</g>
</g>
</svg>
